<?xml version="1.0" standalone="no"?>
<!DOCTYPE svg PUBLIC "-//W3C//DTD SVG 1.1//EN" "http://www.w3.org/Graphics/SVG/1.1/DTD/svg11.dtd" >
<svg xmlns="http://www.w3.org/2000/svg">
<metadata></metadata>
<defs>
<font id="lhf_country_road_regularRg" horiz-adv-x="923" >
<font-face units-per-em="2048" ascent="1638" descent="-410" />
<missing-glyph horiz-adv-x="512" />
<glyph unicode="ae" horiz-adv-x="1519" d="M0 0q64 116 82 346q15 173 12 220q-5 55 -26 73q34 17 84.5 137t111 273t105.5 219h6q51 -55 105.5 -157.5t91.5 -194.5t75 -173.5t60 -101.5q-10 -18 -14.5 -39.5t-3.5 -54.5t3.5 -55t9 -71.5t9.5 -74.5q10 -90 16 -134.5t24.5 -108.5t45.5 -103h-336q58 95 51 317h-317 q0 -203 57 -317h-252zM197 414h307q-4 84 -26.5 147t-53.5 80q28 33 -1 149.5t-87 223.5q-32 -69 -57.5 -146t-35.5 -144t15 -83q-30 -27 -43 -83t-18 -144zM838 0q48 75 71.5 219t11 269.5t-58.5 150.5q46 25 58.5 142t-11 252t-71.5 212h612q-54 -168 -31 -356 q-44 -10 -98 -55q2 38 3.5 81.5t-9.5 88t-28 81t-52 59.5t-82 23h-49q-14 -68 -14 -153v-307q61 41 116 96q53 -59 129 -103q-80 -43 -129 -104q-41 52 -116 96v-330q0 -141 16 -266h41q45 0 79.5 19t54.5 50.5t34 71.5t17.5 81.5t5.5 81.5t-3 71q54 -44 101 -55 q-13 -90 -1.5 -212t44.5 -204h-641z" />
<glyph unicode="&#xfb01;" horiz-adv-x="1105" d="M51 0q37 56 59 154t27 204q3 106 -12 184t-49 97q46 25 58.5 142t-11.5 252t-72 212h613q-54 -168 -31 -356q-44 -10 -98 -55q5 47 -4 102.5t-29.5 108t-61 87.5t-92.5 35h-29q-16 -66 -16 -153v-307q71 49 117 96q53 -59 129 -103q-80 -43 -129 -104q-45 54 -117 96 v-332q0 -94 26 -198.5t64 -161.5h-342zM715 0q48 75 71.5 219t10.5 269.5t-58 150.5q45 25 58 141.5t-10.5 252.5t-71.5 212h340q-49 -76 -72 -212t-10 -252t57 -142q-44 -26 -57 -151t10 -269t72 -219h-340z" />
<glyph unicode="&#xfb02;" horiz-adv-x="1394" d="M51 0q37 56 59 154t27 204q3 106 -12 184t-49 97q46 25 58.5 142t-11.5 252t-72 212h613q-54 -168 -31 -356q-44 -10 -98 -55q5 47 -4 102.5t-29.5 108t-61 87.5t-92.5 35h-29q-16 -66 -16 -153v-307q71 49 117 96q53 -59 129 -103q-80 -43 -129 -104q-45 54 -117 96 v-332q0 -94 26 -198.5t64 -161.5h-342zM715 0q47 75 70.5 219t10.5 269.5t-59 150.5q46 25 59 142t-10 252t-71 212h340q-50 -76 -73.5 -212t-10 -252t58.5 -142q-17 -13 -28.5 -30.5t-17.5 -37t-9 -43t-3.5 -49.5t-0.5 -56v-63q-3 -190 62 -262q42 -47 89 -16q57 37 71 155 l3 27q4 61 -20.5 121.5t-57.5 101.5q61 17 110 43t107 80q-41 -149 -33 -330.5t72 -279.5h-659z" />
<glyph horiz-adv-x="2048" />
<glyph horiz-adv-x="2048" />
<glyph unicode="&#xd;" horiz-adv-x="2048" />
<glyph unicode=" "  horiz-adv-x="512" />
<glyph unicode="&#x09;" horiz-adv-x="512" />
<glyph unicode="&#xa0;" horiz-adv-x="512" />
<glyph unicode="!" horiz-adv-x="385" d="M61 1245h263q-81 -494 -84 -909h-95q6 416 -84 909zM104 109q0 47 24 88t65 41q42 0 66 -41t24 -88t-24 -89.5t-66 -42.5q-41 0 -65 43t-24 89z" />
<glyph unicode="&#x22;" horiz-adv-x="577" d="M82 1174q0 37 23.5 60t68.5 23q94 0 94 -83q0 -21 -2 -31l-51 -363h-80l-51 363q-2 10 -2 31zM309 1174q0 37 23.5 60t68.5 23q48 0 71.5 -22.5t23.5 -60.5q0 -21 -2 -31l-52 -363h-80l-51 363q-2 10 -2 31z" />
<glyph unicode="#" horiz-adv-x="1400" d="M61 0q47 75 70.5 219t11.5 269.5t-57 150.5q45 25 57 142t-11.5 252.5t-70.5 211.5h265q-15 -18 -11 -52t14 -64t21 -48q38 -63 127.5 -160t120.5 -143q7 122 -14 257.5t-68 209.5h262q-49 -75 -72 -211t-9.5 -252.5t57.5 -142.5q-44 -26 -57.5 -151t9.5 -269t72 -219 h-262q35 53 58.5 133t23.5 162q0 64 -15 118t-51.5 110t-69.5 95.5t-97 108.5q-64 71 -127 191q-5 -104 10.5 -182t50.5 -97q-45 -26 -58.5 -151t10 -269t73.5 -219h-263zM784 893q33 21 39 72q19 133 85 218t155 85t155 -85t85 -218q6 -53 36 -72q-27 -15 -34 -68 q-14 -140 -81.5 -233.5t-160.5 -93.5q-97 0 -163.5 92.5t-80.5 234.5q-7 52 -35 68zM855 379q0 9 9 16q108 72 207 51q16 -3 41.5 -12.5t41.5 -15t40 -3t47 16.5q17 9 25 -5.5t-6 -25.5q-106 -73 -207 -51q-16 3 -41.5 12.5t-42.5 15t-41 3.5t-47 -16q-9 -6 -17.5 -0.5 t-8.5 14.5zM958 825q-1 -39 3 -76.5t14 -77t32 -63.5t54 -24q33 0 56 24t32.5 64t13 76.5t2.5 76.5q0 52 -28 68q28 16 28 68q-4 219 -104 219q-99 0 -103 -219q0 -52 29 -68q-29 -16 -29 -68z" />
<glyph unicode="$" horiz-adv-x="837" d="M-16.5 372.5q13.5 76.5 67.5 141.5q65 79 159 69q72 -8 112 -59q43 -56 2 -114q-11 -16 -29 -31q-50 51 -93 12q-40 -36 -40 -115q0 -32 8 -63q15 -53 63 -95t115 -42h12v553q-73 31 -116 14q4 28 -21.5 61.5t-81.5 88.5q-67 64 -78 149q-19 143 67 231t230 97v133h52 v-135q70 -5 139 -39t106 -92q6 -9 13.5 -15t11.5 -8t12.5 -4t10.5 -2l-158 -186q1 57 -11 105.5t-44 88t-80 51.5v-327q79 -43 120 -25q-5 -41 74 -110q69 -62 104 -157t33 -196q-1 -80 -30 -146.5t-77.5 -111t-105 -72t-118.5 -38.5v-142h-52v135h-14q-80 0 -153.5 33.5 t-122.5 91t-74.5 126t-12 145zM240 1040q0 -89 108 -163l12 -9v303q-53 -5 -86.5 -40.5t-33.5 -90.5zM412 84q41 11 70.5 41.5t43.5 70.5t20.5 77t6.5 73q0 43 -15.5 92.5t-41.5 85.5q-40 52 -84 78v-518z" />
<glyph unicode="%" horiz-adv-x="1220" d="M61 862q30 17 37 72q19 132 85.5 217.5t154.5 85.5q91 0 157 -85t85 -218q7 -56 36 -72q-28 -18 -34 -67q-14 -142 -82 -236t-162 -94q-96 0 -162 93.5t-80 236.5q-6 49 -35 67zM236 793q-1 -38 2.5 -75.5t13.5 -77t32 -63.5t54 -24t55 24t33 63.5t13.5 76.5t2.5 76 q0 28 -5.5 43t-22.5 26q17 8 21.5 23t6.5 45q-1 35 -4 62.5t-10 58.5t-17.5 51t-29 33.5t-43.5 13.5q-30 0 -50.5 -18.5t-31 -53.5t-14.5 -68.5t-6 -78.5q1 -21 2.5 -30t7.5 -20.5t18 -17.5q-17 -11 -22.5 -26t-5.5 -43zM338 -162l471 1489h51l-469 -1489h-53zM604 401 q31 20 37 72q21 133 87 218t155 85t154.5 -85t84.5 -218q6 -52 37 -72q-29 -18 -35 -67q-14 -140 -81.5 -234t-159.5 -94q-97 0 -163.5 93t-80.5 235q-6 51 -35 67zM778 334q-1 -39 3 -76.5t14 -77t32.5 -64t55.5 -24.5q32 0 54.5 24t32 64t13 77t2.5 77q0 51 -29 67 q17 9 22 24t7 44q-2 45 -6 78.5t-14.5 69t-31 54.5t-50.5 19q-31 0 -52 -19t-31.5 -54.5t-15 -69t-6.5 -78.5q1 -19 2.5 -29t8 -21t18.5 -18q-17 -10 -22 -24.5t-7 -42.5z" />
<glyph unicode="&#x26;" horiz-adv-x="1654" d="M45 -10q64 107 102 291q11 54 26.5 140t26.5 146t13 66q14 131 -16 192l264 70q-21 -62 -20.5 -141.5t23 -150.5t54.5 -79q-35 -36 -5.5 -165.5t85.5 -200.5q41 96 43.5 235.5t-39.5 153.5q45 39 38.5 179t-54.5 204l170 45q-10 -28 -3.5 -55.5t17.5 -45.5q24 -34 82 -80 t78 -71q3 81 -9 164t-42 121l165 45q-32 -57 -46 -148t-5.5 -162.5t37.5 -80.5q-28 -24 -37 -106t5 -170.5t46 -127.5l-165 -45q51 93 51 203q0 41 -9.5 72.5t-34 61.5t-44 48t-62.5 53q-35 28 -80 101q-5 -66 5.5 -113.5t33.5 -54.5q-28 -24 -37 -106t5.5 -170.5 t46.5 -127.5l-144 -39l-24 -6l-203 -53q20 60 19.5 139.5t-21 155t-49.5 92.5q-26 -23 -49 -53q-17 17 -52 28q-5 -36 -22 -147q-14 -72 -14 -148.5t18 -113.5zM66 1057q0 53 36 91.5t84 41.5q39 2 71 -18.5t32 -57.5q0 -28 -19 -46.5t-47 -18.5q-22 0 -38.5 12.5 t-22.5 32.5q-3 12 -16 14t-21 -10q-12 -18 -12 -41q0 -52 45 -71.5t96 -6.5l1122 305q-14 -23 -14 -55l-1096 -295q-72 -20 -136 15t-64 108zM113 -137q18 29 18 53l1217 330q72 20 136 -14.5t64 -108.5q0 -53 -35.5 -91.5t-82.5 -41.5q-40 -2 -71.5 19.5t-31.5 58.5 q0 26 19 44.5t45 18.5q48 0 61 -45q5 -11 17 -12.5t20 8.5q12 21 12 41q0 52 -44.5 71.5t-94.5 6.5zM233 455q31 24 50 53q24 -17 49 -27q25 40 15.5 146t-42.5 178q-22 -70 -39 -158q-20 -109 -33 -192zM1085 268q48 89 55 244t-38 168q45 39 38 180t-55 203l244 65 q91 24 161 -49.5t89 -208.5q4 -26 12 -35.5t27 -15.5q-20 -20 -26.5 -31t-10.5 -36q-14 -153 -85 -272.5t-167 -145.5zM1247 489q0 -57 10 -112l37 10q62 16 105 123.5t41 196.5q0 26 -7.5 36.5t-27.5 18.5q19 18 26.5 32.5t8.5 41.5q-3 97 -44.5 167t-105.5 54l-35 -10 q-8 -54 -8 -89v-106q0 -48 11 -81.5t30 -39.5q-16 -14 -28.5 -50t-12.5 -75v-117z" />
<glyph unicode="'" horiz-adv-x="301" d="M61 1126q0 47 24 88t65 41t65.5 -41t24.5 -88q0 -77 -36.5 -144.5t-86.5 -102.5h-39q30 30 46 54.5t26 61.5q-41 0 -65 42t-24 89z" />
<glyph unicode="(" horiz-adv-x="413" d="M41 596q0 238 55 467.5t154 310.5q-75 -212 -70 -778q5 -599 70 -784q-67 55 -116 190t-71 289t-22 305z" />
<glyph unicode=")" horiz-adv-x="413" d="M164 -188q22 63 36.5 159t21 219.5t8.5 203.5t3 202q5 569 -69 778q99 -81 154 -310.5t55 -467.5q0 -151 -22 -305t-71 -289t-116 -190z" />
<glyph unicode="*" horiz-adv-x="886" d="M0 0q48 64 92.5 181.5t67.5 230.5q98 473 102 526q22 207 -24 307h415q-27 -57 -31.5 -153.5t10 -189t44.5 -168.5t67 -95q-24 -15 -28.5 -71t9 -132t37 -157.5t57.5 -157t69 -121.5h-355q24 54 28.5 150.5t-7 191.5t-38.5 177.5t-62 111.5q-53 -32 -78 -66 q-42 45 -80 66q-4 -21 -16.5 -97.5t-20.5 -121.5q-23 -114 -23 -231t27 -181h-262zM297 647q44 25 78 64q37 -37 76 -62q40 52 25.5 221.5t-66.5 296.5q-31 -84 -62 -229q-30 -147 -51 -291z" />
<glyph unicode="+" horiz-adv-x="821" d="M51 0q48 75 72 219t11.5 269.5t-58.5 150.5q46 25 58.5 142t-11.5 252t-72 212h365q164 0 255 -83.5t91 -213.5q0 -126 -69.5 -207t-184.5 -102q77 -38 162 -208.5t151 -430.5h-264q-10 141 -64.5 321.5t-113.5 278.5h-76v-137q0 -331 76 -463h-328zM303 696h59 q191 0 191 252q0 87 -56.5 153t-142.5 66h-43q-8 -78 -8 -153v-318z" />
<glyph unicode="," horiz-adv-x="292" d="M61 123q0 47 24 88t65 41t65.5 -41t24.5 -88q0 -77 -36.5 -145t-86.5 -103h-39q56 56 72 117q-41 0 -65 42t-24 89z" />
<glyph unicode="-" horiz-adv-x="788" d="M76 539q2 5 6 10q142 175 305 188q28 2 72 -1.5t72.5 -4.5t65 14t67.5 50q23 25 43 5t2 -44q-58 -79 -142 -135t-166 -56q-20 0 -58.5 2.5t-63 2.5t-56 -4.5t-57.5 -20t-47 -41.5q-17 -21 -35 -6q-19 16 -8 41z" />
<glyph unicode="." horiz-adv-x="276" d="M61 117q0 47 24 89t65 42q42 0 66 -41.5t24 -89.5q0 -46 -24 -87.5t-66 -41.5q-41 0 -65 41.5t-24 87.5z" />
<glyph unicode="/" horiz-adv-x="645" d="M61 -121l471 1489h52l-469 -1489h-54z" />
<glyph unicode="0" horiz-adv-x="903" d="M61 627q0 105 25 215t71.5 207t124 159t171.5 62q76 0 141 -41t109.5 -107.5t76.5 -151.5t47 -172.5t15 -170.5q-1 -106 -25.5 -216.5t-70 -209t-122.5 -161.5t-171 -63q-77 0 -142.5 42t-110 109t-76.5 153.5t-47 174t-16 171.5zM279 627q1 -53 2 -93t5 -101t11 -106 t20 -94.5t31 -81.5t44.5 -53.5t60.5 -21.5q38 0 68 25.5t47.5 74.5t29.5 99.5t17.5 122t7 119t2.5 110.5q1 56 -1 109t-7.5 119t-17.5 119.5t-30.5 100.5t-48 73t-67.5 26q-56 -1 -94 -56t-54 -148t-21.5 -173t-4.5 -170z" />
<glyph unicode="1" horiz-adv-x="458" d="M10 1130q45 55 58 99q79 -4 121.5 1.5t140.5 29.5v-846q0 -125 18.5 -239t59.5 -175h-310q38 61 56 175t18 237v483q0 29 -0.5 46t-2 48t-5 51t-10 41.5t-17 33t-24.5 13.5q-54 9 -103 2z" />
<glyph unicode="2" horiz-adv-x="741" d="M41 1108q1 0 7.5 0.5t8.5 1t7.5 2.5t8 4.5l7 7t8.5 11.5q42 64 115 98.5t147 34.5q155 0 246 -81t84 -245q-2 -53 -31 -106.5t-73.5 -99.5t-98 -93t-106 -95t-96 -97t-70.5 -108t-27 -120v-137h137q57 0 98.5 10t77 40t52.5 81q29 83 14 256q50 -44 102 -55 q-14 -90 -3 -212.5t44 -205.5h-606v256q0 98 23 181.5t59.5 141t80.5 106.5t88.5 86t81 70t60 69t23.5 73q0 81 -44.5 133.5t-117.5 52.5q-56 0 -91 -35.5t-47 -86.5t-9 -115z" />
<glyph unicode="3" horiz-adv-x="825" d="M21.5 271q-3.5 55 13 109.5t53.5 96.5q75 86 165 69q62 -13 93 -65q34 -58 -5 -110q-13 -17 -34 -31q-30 57 -71 36q-39 -20 -52 -83q-10 -47 2 -94q14 -57 59 -90t115 -33q68 0 113.5 46.5t63.5 115t18 155.5q0 63 -17.5 124.5t-58.5 108t-98 46.5h-107v88h107 q66 0 102.5 62.5t34.5 162.5q0 91 -37 138.5t-121 47.5q-83 0 -124.5 -70t-38.5 -167l-158 176q28 0 47 27q49 61 123.5 97t146.5 36q348 0 351 -287q1 -61 -20 -112t-54 -82t-69.5 -49t-71.5 -21q90 -14 173.5 -100.5t86.5 -210.5q2 -100 -22 -178t-63.5 -124.5 t-93.5 -76.5t-105.5 -41t-105.5 -11q-76 0 -140 25t-105.5 66t-66.5 94.5t-28.5 108.5z" />
<glyph unicode="4" horiz-adv-x="854" d="M12 336q-5 102 25 233t81 255t102.5 227t101.5 182q64 0 129.5 9.5t95.5 25.5v-856q110 0 123 233q12 -11 21 -16.5t13 -7t17 -3.5t20 -4q-11 -100 -3.5 -143t44.5 -135h-235q0 -136 18.5 -206.5t57.5 -129.5h-306q36 60 54 130.5t18 205.5h-377zM164 412h225v735 q-71 -110 -152 -350t-73 -385z" />
<glyph unicode="5" horiz-adv-x="856" d="M38 367.5q17 68.5 68 119.5q83 83 178 60q66 -16 95 -71q34 -61 -9 -112q-12 -14 -30 -26q-31 58 -73 35q-39 -20 -52 -84q-9 -45 2 -90q14 -57 58.5 -90.5t113.5 -34.5q51 -1 91.5 32t63 85t34 109.5t10.5 113.5q-3 122 -64.5 199t-167.5 98t-250 -11l31 545h594 q-30 -94 -37.5 -145.5t2.5 -143.5q-46 -12 -98 -55q8 47 3.5 93t-18 82t-54 58.5t-105.5 22.5h-164l-16 -344q119 28 218 5t170.5 -79.5t111.5 -138t40 -170.5t-23.5 -167.5t-70 -143.5t-124.5 -103t-179 -39q-90 -1 -165.5 35t-119 94t-62.5 125.5t-2 136z" />
<glyph unicode="6" horiz-adv-x="870" d="M53 629q1 81 17 168t48 172t75.5 152.5t105.5 109t133 41.5q169 0 254 -133q4 -7 9 -11.5t8 -7t8 -4.5t7 -2.5t8 -1t7 -0.5l-141 -156q2 95 -38.5 157.5t-121.5 62.5q-42 0 -74 -39.5t-50 -98t-29.5 -136.5t-15 -143t-3.5 -130q0 -551 176 -551q48 0 83.5 32t55 88.5 t28.5 123t9 145.5q0 64 -8 119t-26 101.5t-50.5 73.5t-76.5 27q-37 0 -65.5 -26.5t-37.5 -65.5l-41 82q12 38 60 66t98 28q85 0 152 -33.5t108 -91t62.5 -130.5t21.5 -156q0 -89 -24 -173t-69 -153.5t-118.5 -112t-163.5 -42.5q-99 0 -176 61t-121 159t-65 208.5t-19 220.5z " />
<glyph unicode="7" horiz-adv-x="702" d="M31 1245h661q-65 -112 -123 -295t-94 -364t-57 -339t-21 -247h-213q10 137 45.5 293t91 318t102 281.5t109.5 266.5h-266q-111 0 -123 -223q-12 11 -21 16.5t-13 7t-16.5 4.5t-20.5 5q11 98 3.5 141t-44.5 135z" />
<glyph unicode="8" horiz-adv-x="841" d="M41 408q0 108 51 199.5t146 137.5q-72 38 -111 104t-39 138q0 115 87.5 200t246.5 85q80 0 144.5 -24t104.5 -65t61.5 -91t21.5 -105q0 -72 -39 -138t-111 -104q95 -46 146 -137.5t49 -199.5q-1 -77 -25.5 -152t-69.5 -137t-118.5 -100.5t-163.5 -38.5q-92 0 -167 38.5 t-120.5 100.5t-69.5 137t-24 152zM244 422q0 -40 1.5 -71.5t7 -75t17.5 -75.5t30.5 -61.5t49 -45t70.5 -15.5t71 15.5t50 45t31 61.5t17.5 75.5t7 75t1.5 71.5q0 283 -178 283q-46 0 -80 -19t-52 -46t-28.5 -68.5t-13 -74.5t-2.5 -75zM264 977q0 -31 7 -61.5t23 -61.5 t49 -50.5t79 -19.5t78 19.5t47.5 51.5t21.5 61.5t6 60.5q0 36 -6 66.5t-21 62t-47.5 50t-78.5 18.5q-47 0 -79.5 -18.5t-49 -49.5t-23 -62t-6.5 -67z" />
<glyph unicode="9" horiz-adv-x="872" d="M51 788q0 89 24.5 173.5t70 154t119 112t163.5 42.5q99 0 176 -61t121 -158.5t65 -208t19 -221.5q-2 -103 -27.5 -212.5t-70.5 -207.5t-119 -161t-162 -63q-166 0 -254 134q-3 6 -6.5 10t-7.5 7t-6.5 5t-7 3t-6.5 1.5t-7 1t-6 0.5l141 154q-2 -95 38 -156t122 -61 q42 0 74 39.5t50 97.5t29.5 136t15 143t3.5 131q0 551 -176 551q-48 0 -83.5 -32.5t-55 -89.5t-28.5 -124t-9 -146q0 -64 8.5 -118t26 -101t50.5 -73.5t77 -26.5q37 0 65 26t37 66l41 -84q-12 -37 -59.5 -64.5t-98.5 -29.5q-112 -2 -192 56.5t-117 150.5t-37 204z" />
<glyph unicode=":" horiz-adv-x="301" d="M61 117q0 47 24 89t65 42q42 0 66 -41.5t24 -89.5q0 -46 -24 -87.5t-66 -41.5q-41 0 -65 41.5t-24 87.5zM61 733q0 47 24 89t65 42q42 0 66 -41.5t24 -89.5q0 -46 -24 -87.5t-66 -41.5q-41 0 -65 41.5t-24 87.5z" />
<glyph unicode=";" horiz-adv-x="301" d="M61 119q0 47 24 88t65 41t65.5 -41t24.5 -88q0 -77 -36.5 -145t-86.5 -103h-39q56 56 72 117q-41 0 -65 42t-24 89zM61 735q0 47 24 88t65 41q42 0 66 -41t24 -88q0 -48 -24 -89.5t-66 -41.5q-41 0 -65 42t-24 89z" />
<glyph unicode="&#x3c;" horiz-adv-x="1144" d="M55 -102q10 21 15 53l804 215q72 20 136.5 -14.5t64.5 -108.5q0 -53 -36.5 -91.5t-84.5 -41.5q-40 -2 -71 19t-31 59q0 26 19 44.5t47 18.5q22 0 38.5 -12.5t22.5 -32.5q3 -11 15 -12.5t20 8.5q14 24 14 41q0 51 -45.5 71.5t-95.5 6.5zM57 1102q0 53 36.5 91.5t84.5 41.5 q40 3 71.5 -17.5t31.5 -58.5q0 -28 -19 -46.5t-47 -18.5q-21 0 -38 13t-23 34q-3 11 -15 12.5t-20 -10.5q-15 -23 -15 -41q0 -50 46.5 -70.5t95.5 -7.5l823 223q-9 -18 -14 -53l-797 -215q-47 -10 -91.5 -2t-77 42t-32.5 83zM78 455q33 30 39 86q19 147 85.5 256t157.5 133 t157 -49t87 -211q10 -58 37 -66q-29 -26 -35 -82q-14 -154 -83 -273t-163 -145q-97 -27 -160.5 54t-84.5 233q-6 52 -37 64zM248 420q-1 -46 3 -88t14.5 -85.5t34 -65.5t58.5 -13t59.5 43.5t35 84t14 93.5t2.5 90q0 61 -31 72q31 29 31 88q-1 41 -4 72.5t-10.5 66t-19 55.5 t-31 31.5t-46.5 3.5q-32 -9 -54 -37t-32.5 -71.5t-15 -83.5t-6.5 -94q0 -33 5.5 -50t23.5 -22q-19 -19 -24 -37.5t-7 -52.5zM668 203q46 84 53 243q4 157 -39 168q45 39 39.5 180t-53.5 203l391 105q-35 -111 -21 -232q-32 -17 -61 -53q4 43 -6 87.5t-40 75.5t-75 19l-18 -6 q-11 -50 -11 -100v-236q30 28 76 82q33 -30 82 -45q-55 -44 -82 -88q-29 29 -76 43v-174q0 -60 16.5 -122t41.5 -93z" />
<glyph unicode="=" horiz-adv-x="866" d="M61 0q47 75 70.5 219t11.5 269.5t-57 150.5q44 19 57.5 138t-4.5 257t-57 211h348q163 0 248.5 -81.5t85.5 -205.5q0 -119 -63 -183t-169 -79q106 -10 188 -97t83 -228q1 -97 -31.5 -170.5t-90.5 -116t-131.5 -63.5t-162.5 -21h-326zM313 276q0 -122 21 -180h39 q96 0 151.5 81.5t57.5 193.5q1 32 -5.5 67t-22 72.5t-38.5 67t-59.5 48.5t-81.5 19h-62v-369zM313 743h58q92 0 142 64t50 156q0 84 -55 144t-131 60h-53q-11 -91 -11 -153v-271z" />
<glyph unicode="&#x3e;" horiz-adv-x="1626" d="M25 764l501 133q-34 -119 -18 -231q-21 -9 -64 -52q4 38 -6 84t-36 78t-60 23q-22 -95 -15 -207t42 -123q-28 -23 -37 -104t5 -169.5t46 -127.5l-215 -58q46 89 52.5 243t-38.5 169q36 29 42.5 144t-15.5 198q-48 -12 -79 -96.5t-24 -143.5q-35 21 -63 21q17 126 -18 219 zM33 1034q0 53 36 90.5t85 40.5q38 3 70 -17.5t32 -57.5q0 -27 -19.5 -46.5t-46.5 -19.5q-21 0 -38 13t-23 34q-3 11 -16 12.5t-19 -8.5q-14 -20 -14 -41q0 -51 45.5 -71.5t95.5 -6.5l1247 332q-11 -18 -16 -53l-1219 -324q-72 -20 -136 14.5t-64 108.5zM150 -143 q10 22 18 55l1216 330q72 20 136.5 -15t64.5 -108q0 -53 -36.5 -91.5t-84.5 -41.5q-40 -2 -71 18t-31 57q0 28 18.5 47t46.5 19q22 0 39 -12.5t23 -32.5q3 -12 15 -14t20 10q14 21 14 41q0 50 -46 70.5t-95 7.5zM485.5 485.5q-3.5 37.5 28.5 77.5q37 47 111 76 q2 76 -12.5 154.5t-43.5 115.5l217 58q-25 -44 -40 -109t-15 -127v-65q28 1 53.5 1.5t57 -9t59.5 -29.5v147q0 61 -14.5 119t-38.5 88l217 57q-30 -57 -45 -147t-7 -161.5t36 -80.5q-44 -37 -37.5 -188t53.5 -213l-217 -57q53 118 53 184v110q0 26 -10 52.5t-25 35.5 q-44 23 -135 13v-168q0 -74 14.5 -143t40.5 -101l-217 -57q29 54 43.5 148.5t11.5 171t-20 93.5q6 13 8 19q-29 -16 -39 -41.5t11 -38.5q-28 -44 -65 -33q-30 10 -33.5 47.5zM1118 262q30 56 45 152t7.5 173.5t-35.5 86.5q28 24 35.5 100t-7.5 158t-45 123l389 102 q-34 -119 -18 -231q-25 -13 -64 -52q5 30 1 65.5t-13 66t-33.5 46t-60.5 5.5l-31 -8q-10 -42 -10 -101v-170q29 51 84.5 69t91.5 -9q32 -31 24.5 -71t-41.5 -67.5t-59 -7.5q22 49 9.5 72t-44.5 16q-32 -9 -48.5 -38t-16.5 -68v-139q0 -45 2 -78t5 -57t3 -31l27 8 q42 11 70 44.5t37 73t13.5 81.5t-1.5 71q30 -18 65 -18q-9 -61 -1.5 -136.5t28.5 -121.5z" />
<glyph unicode="?" horiz-adv-x="749" d="M61 1114q30 0 48 27q44 66 113 99.5t143 33.5q149 0 236 -68.5t87 -216.5q0 -57 -16 -107t-41 -87t-55.5 -71t-61.5 -67t-56 -67t-41 -78.5t-16 -95.5v-76h-92v76q0 59 19.5 115.5t48 104t56.5 97.5t47.5 116.5t19.5 139.5q0 87 -37 137t-109 50q-53 0 -85 -36t-42 -86.5 t-8 -115.5zM283 113q0 47 23.5 88t64.5 41t65.5 -41t24.5 -88t-24 -89t-66 -42q-41 0 -64.5 42.5t-23.5 88.5z" />
<glyph unicode="@" horiz-adv-x="1114" d="M61 616q0 178 66.5 329t180.5 239t249 88t249 -88t180.5 -239t66.5 -329q0 -58 -12.5 -128.5t-37.5 -142.5t-70.5 -120.5t-103.5 -48.5h-186q-14 0 -14 12v25q-8 -5 -21.5 -13.5t-53 -22t-75.5 -13.5q-93 0 -152 70.5t-61 171.5q0 85 43 155q16 26 60.5 55.5t90 52 t95 54.5t74.5 61v127q0 48 -54 80.5t-98 14.5q-24 -9 -35 -29t-20 -55q-4 -15 -6.5 -32.5t-4 -30t-1 -34.5t1 -30.5t2.5 -34.5t2 -31q1 -29 -9 -50.5t-25 -26t-30 9.5q-9 10 -11 23t1 23t7 24.5t5 23.5q17 129 -10 223q-7 22 2 42t29 19q5 0 23.5 -8.5t29.5 -3.5 q39 17 49 19q78 20 165 -8t110 -103q7 -31 4.5 -61.5t1 -66t18.5 -54.5q-16 -13 -16 -86v-363q0 -19 4.5 -31.5t10 -19t17 -9t19.5 -3t24.5 0.5t24.5 1q51 0 91 124t40 248q0 168 -55.5 306t-155 218.5t-223.5 80.5t-223.5 -80.5t-155 -218.5t-55.5 -306q0 -253 122.5 -420 t311.5 -173q33 -1 42.5 -16.5t-4 -30.5t-36.5 -15q-137 0 -251.5 87.5t-180.5 238.5t-66 329zM387 428q-1 -93 41.5 -137.5t101.5 -46.5q55 0 80 28q19 27 19 80v365q-12 -21 -42 -43t-62.5 -43t-64 -47.5t-52 -66.5t-21.5 -89z" />
<glyph unicode="A" horiz-adv-x="909" d="M12 0q48 64 92.5 181.5t67.5 230.5l39 190q-47 -11 -63 -42q-5 -10 -5 -21q0 -21 21 -41q-27 -35 -60 -35q-15 0 -31 7q-43 19 -58 70q-5 18 -5 36q0 51 45 96q64 64 183 67l36 199q13 76 13 142q0 91 -25 165h402q-22 -57 -26 -153q-1 -21 0 -43q0 -75 10 -147 q12 -92 41.5 -168t66.5 -95q-24 -15 -29 -71q-1 -15 -1 -32q0 -45 10 -100q14 -76 37 -157.5t57 -157t69 -121.5h-354q29 63 31 184v28q0 105 -17 200q-9 54 -40 96t-71 64.5t-77 33.5t-68 12l-35 -206q-20 -117 -20 -233.5t26 -178.5h-262zM322 731q122 -22 202 -100 q-1 9 -9.5 67.5t-14 94.5t-16 101t-19.5 111.5t-21 98.5t-24 88q-21 -73 -60 -254q-18 -88 -38 -207z" />
<glyph unicode="B" horiz-adv-x="944" d="M-18 1047q0 55 36 99t98 69.5t133.5 38t147.5 12.5q73 0 132 -6.5t121.5 -26.5t104 -53t68.5 -91t27 -135q0 -87 -65.5 -165.5t-149.5 -92.5q106 -10 187 -97t81 -230q0 -100 -31.5 -173t-89.5 -115t-129.5 -61.5t-160.5 -19.5h-328q48 76 73 219q17 98 17 188 q0 41 -4 81q-12 126 -57 151q57 29 57 195v333q-38 -5 -73.5 -38t-35.5 -66q0 -76 72 -113q-60 -45 -113 -45q-24 0 -46 9q-72 31 -72 133zM416 274q0 -113 20 -178h39q95 0 152 84t57 189q0 46 -11 91.5t-33.5 88.5t-64 69.5t-96.5 26.5h-63v-371zM416 743h57q89 0 140 63 t51 150q0 41 -10 76.5t-35 71.5t-77 56q-45 17 -107 16h-19v-433z" />
<glyph unicode="C" horiz-adv-x="837" d="M20 639q29 18 42 46t20 73q30 222 135.5 367t245.5 145q71 0 141.5 -35t112.5 -98q7 -13 16.5 -19.5t14 -7t16.5 -2.5l-160 -186v26q0 223 -133 223q-43 -1 -76 -38t-52 -98t-29.5 -129t-12.5 -142v-7q0 -78 61 -118q-60 -43 -63 -125v-13q0 -61 8 -125q9 -72 29 -142.5 t58 -115t89 -44.5q67 0 107 39.5t53 99.5q8 32 8 63q0 49 -20 92q-22 48 -51 48h-5q-22 -4 -40 -37q-56 45 -56 97q0 17 6 35q17 55 76 81q32 15 63 14q41 0 79 -25q34 -22 59 -63q40 -64 52 -140q4 -28 4 -55q0 -47 -12 -91q-20 -70 -62 -128q-42 -60 -114 -94 q-70 -34 -156 -33h-5q-99 1 -183.5 73t-139 196.5t-68.5 277.5q-6 79 -58 115z" />
<glyph unicode="D" horiz-adv-x="905" d="M51 0q47 75 71 219q15 94 16 180q0 45 -4 89q-12 126 -58 151q46 25 58 142q4 41 4 84q0 81 -16 169q-24 136 -71 211h305q96 0 171.5 -30.5t123.5 -77t84 -118t54.5 -136t33.5 -148.5q7 -40 19.5 -58.5t42.5 -37.5q-31 -23 -41.5 -39t-16.5 -53q-13 -81 -33.5 -154 t-57.5 -147t-85.5 -127t-119.5 -86t-156 -33h-324zM303 276q0 -87 14 -180h60q66 0 121.5 77t82.5 177q25 93 25 173v12q-1 42 -12.5 61.5t-44.5 42.5q32 20 43.5 39.5t11.5 62.5q0 96 -28 192.5t-83.5 165t-123.5 68.5h-54q-12 -82 -12 -153v-168q0 -76 18 -133t48 -74 q-27 -14 -46.5 -64.5t-19.5 -113.5v-185z" />
<glyph unicode="E" horiz-adv-x="733" d="M51 0q47 75 71 219q15 94 16 180q0 45 -4 89q-12 126 -58 151q46 25 58 141q4 40 4 84q0 80 -16 169q-24 136 -71 212h613q-39 -121 -39 -245q0 -55 8 -111q-48 -11 -98 -55q2 38 3 82v7q0 41 -10 81q-11 44 -28.5 80.5t-52 59.5t-80.5 23h-52q-12 -74 -12 -153v-271 q49 76 146 76q76 0 131 -55q41 -42 42 -91q0 -22 -9 -46q-19 -55 -66 -76q-18 -8 -34 -8q-28 0 -52 24q22 43 22 75q1 18 -7 34q-20 42 -70 43q-52 0 -77.5 -38.5t-25.5 -100.5v-220q0 -139 16 -264h39q45 0 80 19t56 51t34.5 70.5t18 82t4.5 81t-4 71.5q54 -44 102 -55 q-8 -49 -8 -107q0 -49 6 -105q12 -121 45 -204h-641z" />
<glyph unicode="F" horiz-adv-x="704" d="M51 0q37 56 59 154t27 204q1 18 1 35q0 84 -13 149q-15 78 -49 97q46 25 58 142q4 40 5 82q0 81 -16 170q-24 135 -72 212h613q-38 -118 -38 -245q0 -54 7 -111q-44 -10 -98 -55q2 17 2 35q0 31 -6 67q-9 56 -29.5 108.5t-61 87.5t-92.5 35h-29q-16 -66 -15 -153v-287 q49 76 145 76q76 0 131 -55q41 -42 42 -91q0 -22 -9 -46q-19 -55 -66 -76q-18 -8 -34 -8q-28 0 -52 24q22 43 22 75q1 19 -7 34q-20 42 -70 42q-47 0 -75 -31t-27 -81v-230q0 -94 25.5 -198.5t63.5 -161.5h-342z" />
<glyph unicode="G" horiz-adv-x="839" d="M20 639q27 19 40 47.5t20 73.5q31 220 140.5 364t250.5 144q71 0 137 -33t107 -98q4 -7 8.5 -11.5l7 -7t8 -4.5t7.5 -2.5t8.5 -1t7.5 -0.5l-160 -186v26q0 221 -131 221q-42 0 -76 -36.5t-54.5 -96.5t-31 -130t-10.5 -142q0 -87 61 -127q-58 -38 -61 -125v-24 q0 -55 7 -114q9 -72 28.5 -142t58.5 -115t90 -45q59 0 113 32q-23 44 -23 97v153q0 99 -13.5 202.5t-27.5 146.5h267q-38 -79 -51 -213q-7 -68 -7 -131q0 -61 6 -117q13 -113 44 -144q-45 -15 -97 -48t-100.5 -54t-112.5 -21q-88 0 -160 42t-120.5 117.5t-80 173 t-44.5 216.5q-5 42 -17 68.5t-39 44.5z" />
<glyph unicode="H" horiz-adv-x="964" d="M5 592q-5 17 -5 34q0 52 45 97q60 60 176 74v28q1 105 -19 219q-22 130 -67 201h340q-38 -60 -62 -156.5t-24 -191.5v-104q77 -13 139.5 -39t128.5 -88v231q0 96 -23 192t-61 156h340q-47 -77 -71 -212q-15 -88 -15 -169q1 -43 5 -83q12 -117 57 -142q-45 -25 -57 -151 q-4 -44 -5 -89q-1 -86 15 -180q24 -144 71 -219h-340q40 61 62 175t22 231v55q0 39 -15.5 76.5t-41.5 58.5q-68 58 -211 74v-264q0 -116 22.5 -230.5t63.5 -175.5h-340q47 73 69 216q18 115 18 217q0 25 -2 49q-6 123 -32 157q6 6 13 23q-45 -13 -61 -48q-5 -12 -6 -23 q0 -22 22 -42q-28 -35 -61 -35q-15 0 -31 7q-44 19 -59 71z" />
<glyph unicode="I" horiz-adv-x="442" d="M51 0q47 75 71 219q15 94 16 180q0 45 -4 89q-12 126 -58 151q46 25 58 141q4 40 4 84q0 80 -16 169q-24 136 -71 212h340q-49 -76 -72 -212q-14 -86 -14 -163q1 -46 5 -89q14 -116 57 -142q-43 -26 -57 -151q-5 -46 -5 -95q0 -83 14 -174q23 -144 72 -219h-340z" />
<glyph unicode="J" horiz-adv-x="808" d="M16 376q15 77 64 142q63 84 141 84q11 0 23 -2q65 -10 100 -65q20 -31 20 -61q0 -27 -16 -53q-12 -19 -33 -34q-22 29 -45 29l-33 -16q-38 -38 -40 -120v-14q0 -28 6 -55q14 -63 48.5 -101t102.5 -38q60 0 97.5 39.5t50.5 99.5q20 86 20 173q0 42 -4 85q-15 131 -65 170 q45 25 61 141q7 52 7 109q0 69 -11 143q-19 137 -68 213h326q-48 -76 -72 -212q-15 -89 -15 -169q0 -43 5 -84q12 -116 57 -141q-47 -49 -51 -188q-1 -11 -1 -21q0 -125 50 -209q-18 -17 -49.5 -54t-60 -67t-67 -61t-88.5 -48.5t-107 -17.5q-89 0 -163 35t-118.5 93.5 t-65.5 128.5q-12 41 -12 84q0 31 6 62z" />
<glyph unicode="K" horiz-adv-x="890" d="M51 0q47 75 71 219q16 95 15 183q0 44 -4 86q-12 126 -57 151q42 43 54 167q4 44 4 87q0 81 -14 165q-22 129 -67 187h338q-40 -61 -65 -163.5t-25 -200.5v-308l100 183q179 328 179 463q0 14 -2 26h262q-50 -39 -108.5 -120.5t-98 -153.5t-82.5 -154t-51 -96 q138 -174 213 -373q54 -145 85 -176q14 -14 28 -14l38 26q26 -35 26 -70q0 -33 -24 -66q-40 -56 -115 -70q-20 -4 -38 -4q-66 0 -110 49q-37 41 -50 110q-58 314 -129 449l-119 -222q8 -246 72 -360h-326z" />
<glyph unicode="L" horiz-adv-x="731" d="M51 0q47 76 71 220q15 94 15 179q-1 45 -5 89q-12 126 -58 151q46 25 58 142q4 41 5 85q0 80 -15 167q-23 135 -71 212h340q-50 -76 -73 -212q-14 -86 -14 -163q0 -46 4 -89q14 -116 59 -142q-17 -13 -28.5 -32t-17.5 -34t-9.5 -45.5t-4 -46.5t-0.5 -59.5v-61.5v-17 q0 -177 62 -245q25 -28 52 -28q18 0 37 12q57 37 71 155q2 13 3 27q1 9 1 17q0 52 -21 105q-24 61 -57 101q61 17 110 43t107 80q-34 -125 -34 -272q0 -28 1 -58q8 -182 72 -280h-660z" />
<glyph unicode="M" horiz-adv-x="1013" d="M51 0q47 75 71 219q15 94 16 180q0 45 -4 89q-12 126 -58 151q46 25 58 141q4 40 4 84q0 80 -16 169q-24 136 -71 212h314q-7 -49 -7 -102q0 -224 134 -504q184 272 184 501q0 53 -10 105h297q-49 -76 -73 -212q-15 -86 -15 -165q1 -45 5 -87q14 -116 58 -142 q-44 -26 -58 -151q-5 -46 -5 -94q1 -84 15 -175q24 -144 73 -219h-314q18 40 30.5 98.5t18 107.5t7.5 136.5t2 130.5t-2.5 149t-2.5 136q-32 -106 -122 -285t-95 -192q24 -36 58 -70q-49 -46 -82 -113q-39 71 -84 113q28 24 55 70q-12 25 -46.5 92t-52 103t-43 91.5 t-41.5 101.5t-26 89q-2 -82 -2 -155q0 -459 86 -603h-256z" />
<glyph unicode="N" horiz-adv-x="819" d="M51 0q47 76 71 220q15 94 15 179q-1 45 -5 89q-12 126 -58 151q46 25 58 142q4 41 5 85q0 80 -15 167q-23 135 -71 212h264q-15 -18 -10.5 -52.5t14.5 -63.5t21 -48q37 -64 127.5 -162t120.5 -141q1 25 1 50q0 102 -16 210q-20 134 -67 207h262q-49 -76 -72 -212 q-15 -87 -15 -166q0 -44 5 -86q13 -116 57 -142q-44 -26 -57 -151q-5 -45 -5 -93q0 -84 15 -176q23 -144 72 -219h-262q35 53 58.5 133t23.5 162q0 51 -12.5 99t-28.5 83.5t-52 84t-61.5 77.5t-79.5 88q-64 71 -127 191q-2 -28 -2 -54q0 -70 12 -126q16 -78 52 -99 q-45 -26 -59 -151q-5 -46 -4 -95q0 -83 14 -174q23 -144 73 -219h-262z" />
<glyph unicode="O" d="M20 643q47 30 60 119q31 223 135.5 365.5t245.5 142.5t243 -141.5t138 -366.5q7 -46 19.5 -74t41.5 -45q-48 -33 -57 -115q-20 -156 -72 -279.5t-133.5 -197.5t-179.5 -74q-153 0 -256 155t-129 396q-9 81 -56 115zM289 518q0 -442 172 -442q55 0 93 44.5t54.5 117 t22.5 140.5q5 51 5 104q0 18 -1 36q-2 50 -10.5 77.5t-36.5 47.5q28 17 37.5 46.5t9.5 78.5v18q-1 66 -7 124q-8 66 -25.5 128t-54 97.5t-87.5 35.5q-50 0 -86 -35.5t-53.5 -97.5t-25 -127.5t-7.5 -142.5q0 -49 9.5 -78.5t37.5 -46.5q-29 -20 -38 -48.5t-9 -76.5z" />
<glyph unicode="P" horiz-adv-x="905" d="M-18 1050q0 54 36 96q36 44 97.5 69.5t132 38t143.5 12.5q218 0 345.5 -89.5t127.5 -261.5q0 -161 -105 -261.5t-261 -100.5h-88v-70q0 -202 13 -290q17 -119 60 -193h-325q46 74 70 218q15 94 16 180q0 46 -4 90q-12 126 -58 151q62 36 62 235v293q-37 -5 -72 -38 t-35 -66q0 -77 70 -113q-58 -45 -108 -45q-24 1 -46 11q-71 32 -71 134zM410 651h57q190 0 190 258q0 37 -5.5 70.5t-21.5 71t-42 63.5t-72 42q-41 15 -93 15h-13v-520z" />
<glyph unicode="Q" d="M20 643q53 37 62 121q28 225 132.5 365.5t248.5 140.5q142 0 247.5 -142t131.5 -364q9 -85 61 -121q-51 -32 -57 -113q-21 -232 -125 -388t-248 -160q40 -69 92 -113q-58 -47 -104 -129q-44 76 -103 129q57 61 93 113q-144 6 -247.5 161.5t-125.5 386.5q-6 80 -58 113z M289 520v-21q0 -43 3 -88q4 -56 16 -116.5t31 -107t51 -77t73 -30.5q50 0 86.5 44.5t54.5 115t26 141.5q5 56 5 110v29q-2 50 -10.5 77.5t-36.5 47.5q29 17 38 46t9 79q0 61 -4 114t-16 108t-30.5 94t-49.5 63.5t-72 24.5q-51 0 -86 -35.5t-52.5 -99.5t-25 -126t-10.5 -143 v-15q0 -38 8 -63q10 -29 39 -47q-28 -20 -36.5 -47.5t-10.5 -77.5z" />
<glyph unicode="R" horiz-adv-x="993" d="M0 1051q0 215 397 215q52 0 95.5 -3t93.5 -11.5t89 -23.5t76.5 -40t62 -59t39.5 -83t15 -110q0 -111 -71 -194.5t-176 -102.5q28 -14 53 -40.5t41 -52.5t32.5 -67t24.5 -65t21 -66q35 -116 87 -178q27 -32 52 -32q23 0 43 28q17 -30 17 -58q0 -18 -8 -35 q-18 -43 -64 -71.5t-93 -28.5q-62 0 -108 40t-57 120q-41 269 -170 469h-76q0 -33 0.5 -82.5t0.5 -101.5t4.5 -111.5t12 -112.5t22.5 -105t36 -89h-326q46 75 70 219q15 93 16 178q0 47 -5 91q-13 126 -59 151q62 36 62 225v303q-37 -5 -74 -35.5t-37 -64.5q0 -38 16 -63 t58 -46q-54 -53 -102 -53l-1 1q-48 0 -79 41.5t-31 103.5zM416 700h57q99 0 144 67.5t45 168.5q0 111 -68 176q-62 60 -160 60q-9 0 -18 -1v-471z" />
<glyph unicode="S" horiz-adv-x="806" d="M26 274q-4 22 -4 45q0 37 10 77q16 64 62 118q58 70 138 70q10 0 21 -1q72 -8 112 -59q22 -29 22 -58q0 -28 -20 -56q-11 -16 -29 -31q-28 29 -54 29q-20 0 -39 -17q-40 -36 -40 -115q0 -32 8 -63q13 -53 62 -95t116 -42q195 0 203 270v10q0 39 -14 82q-16 49 -41 86 q-51 72 -131 105q-50 21 -86 21q-20 0 -35 -7q3 20 -12.5 46.5t-33.5 45t-59 58.5q-65 65 -76 149q-4 25 -4 49q0 71 32 128q42 76 119.5 113.5t176.5 37.5q73 0 147.5 -34t122.5 -99q8 -12 18.5 -18t14 -6.5t15.5 -2.5l-160 -186v15q0 53 -12 101q-14 54 -56 92.5 t-106 38.5q-57 0 -94 -36.5t-37 -94.5q0 -52 29.5 -89.5t78.5 -73.5q96 -68 154 -68q17 0 30 6v-5q0 -41 72 -105q70 -61 104.5 -156t34.5 -197q0 -90 -38 -164t-97.5 -118.5t-128 -68.5t-135.5 -24t-129.5 24.5t-110 64.5t-79.5 95t-42 113z" />
<glyph unicode="T" horiz-adv-x="831" d="M20 1245h791q-38 -118 -38 -245q0 -54 7 -111q-48 -11 -98 -55q2 16 2 34q0 46 -12 101q-16 76 -57 137t-95 61q-22 -96 -26 -210q-1 -23 -1 -46q-1 -87 13 -160q18 -92 55 -112q-44 -26 -57 -151q-5 -45 -5 -93q0 -84 15 -176q23 -144 72 -219h-340q46 75 70 219 q15 94 16 180q0 45 -4 89q-12 126 -58 151q37 21 54 113q13 71 13 156q0 24 -1 50q-5 114 -27 209q-51 0 -91 -61q-42 -62 -58 -138q-12 -56 -11 -102q0 -17 1 -32q-54 45 -99 55q7 56 7 111q0 127 -38 245z" />
<glyph unicode="U" horiz-adv-x="862" d="M41 1245h340q-49 -76 -72 -212q-15 -87 -15 -166q0 -44 5 -86q13 -116 57 -142q-52 -39 -66 -171q-5 -43 -5 -85q0 -88 20 -174q13 -55 59.5 -96t106.5 -41q61 0 108 41t60 96q20 87 20 175q-1 42 -5 85q-14 131 -64 170q44 26 57 142q5 42 5 86q0 79 -15 166 q-23 136 -72 212h256q-47 -77 -71 -212q-15 -88 -15 -169q1 -43 5 -83q12 -117 57 -142q-47 -49 -51 -188q0 -11 -1 -21q0 -125 50 -209q-110 -248 -357 -248q-125 0 -222.5 61t-147.5 187q50 84 50 209v21q-4 139 -52 188q45 25 57 142q4 40 4 81q1 81 -15 171 q-24 135 -71 212z" />
<glyph unicode="V" horiz-adv-x="858" d="M31 1245h336q-52 -81 -53 -278q0 -14 1 -29q1 -96 34.5 -188.5t66.5 -110.5q-23 -32 -23 -101q1 -38 7 -86q20 -138 77 -239q31 61 59 153q28 91 38 171q2 20 3 36q0 49 -22 66q29 22 52 103.5t24 195.5v17q0 191 -64 290h260q-42 -76 -61.5 -145t-20.5 -162 q-1 -30 -4 -77.5t-4.5 -76.5t-1 -61.5t6.5 -53t18 -30.5q-30 -21 -63.5 -103t-62.5 -175.5t-81.5 -204t-114.5 -176.5q-2 -2 -4 -2t-2 2q-49 46 -92.5 126.5t-74.5 163.5t-58.5 161.5t-54.5 136t-52 71.5q13 13 20.5 33t10.5 38t1.5 50t-3.5 51.5t-7 62.5t-7 64 q-9 81 -15.5 122.5t-23.5 93t-45 91.5z" />
<glyph unicode="W" horiz-adv-x="1271" d="M31 1245h336q-52 -81 -52 -278v-29q1 -96 34.5 -188.5t66.5 -110.5q-25 -34 -25 -106q1 -31 5 -71q16 -128 73 -231q31 66 54 149t29 155q1 15 1 28q0 51 -18 76q45 40 45 236v33v30q-3 223 -74 307h332q-34 -53 -55 -136t-21 -171q0 -105 21 -187.5t59 -113.5 q-23 -32 -23 -96q0 -35 7 -79q19 -126 77 -231q30 60 56 148q27 88 33 163q1 14 1 26q0 53 -24 71q29 22 51.5 103.5t23.5 195.5v18q0 192 -63 289h260q-41 -78 -61 -146.5t-21 -160.5q-1 -30 -4 -77.5t-4.5 -76.5t-1 -61.5t6.5 -53t18 -30.5q-25 -17 -49 -72.5t-47.5 -131 t-50.5 -155.5t-69.5 -163t-93.5 -137q-3 -3 -6 0q-34 33 -62 76t-50 99t-35.5 97t-33 108.5t-28.5 94.5q-4 -12 -21 -65.5t-24.5 -74.5t-24.5 -69.5t-30.5 -76t-33 -66t-41.5 -68.5t-46 -55q0 -2 -2 -2t-4 2q-59 56 -110.5 165t-81.5 207.5t-65 184t-65 102.5q11 12 18.5 26 t10.5 35t5 35.5t0 46.5t-3 46t-6 55t-6 55q-12 113 -29.5 181t-58.5 126z" />
<glyph unicode="X" horiz-adv-x="925" d="M41 0q50 72 106.5 179.5t123.5 245.5t104 208l-150 356q-33 79 -70.5 132t-101.5 124h297q-1 -8 -1 -16q0 -27 8 -61q10 -44 20 -72.5t41 -106.5l69 -176l95 207q38 84 48 125q8 32 8 74q0 13 -1 26h233q-107 -79 -190 -256l-141 -295l139 -327q44 -103 103 -209 t104 -158h-287q1 10 1 20q0 40 -13 86q-16 58 -56 156l-102 250l-98 -242q-36 -92 -44 -156q-2 -22 -3 -41q0 -40 10 -73h-252z" />
<glyph unicode="Y" horiz-adv-x="999" d="M41 1245h297q-1 -8 -1 -16q0 -28 9 -61q10 -44 21.5 -74t42.5 -105q47 -112 127 -211q59 79 114 211q6 15 21.5 52.5t20 50t14 39t12 41t5 34.5t1.5 39h233q-111 -86 -180 -231q-3 -6 -43.5 -81t-79 -151t-49.5 -110q-17 -89 -17 -221q0 -51 3 -109q6 -123 24.5 -196.5 t61.5 -145.5h-342q73 105 80 342q1 24 1 47q0 84 -9 159q-11 96 -29 144l-162 297q-86 155 -176 256z" />
<glyph unicode="Z" horiz-adv-x="790" d="M41 0q35 58 61.5 111t39.5 85t46 119q34 91 58 186q16 67 17 108q0 17 -3 30q34 36 76.5 123t73.5 176q49 134 57 229h-131q-150 0 -150 -262q0 -33 2 -69q-33 33 -96 55q7 55 7 111q0 121 -33 243h665q-42 -53 -74.5 -124t-74.5 -183q-30 -80 -51 -172q-14 -63 -14 -99 q0 -17 3 -28q-11 -9 -21 -21t-18 -23.5t-17 -29.5t-15 -29.5t-14.5 -35t-13 -34.5t-13 -38.5t-11 -36t-11.5 -39t-11 -37.5q-44 -147 -51 -219h84q38 0 64.5 4t54 15.5t46.5 37t29 64.5q14 55 16 193v46q0 100 -6 138q30 -30 107 -55q-7 -50 -7 -130q0 -62 4 -143 q10 -185 38 -266h-713z" />
<glyph unicode="[" horiz-adv-x="409" d="M61 -106v1458h287v-49h-158v-1358h158v-51h-287z" />
<glyph unicode="\" horiz-adv-x="894" d="M51 0q47 75 70.5 219t11.5 270t-57 152q45 25 57 141.5t-11.5 251.5t-70.5 211h342q-61 -92 -80 -271t15 -274h243q19 74 19 171.5t-23.5 205t-62.5 168.5h340q-48 -75 -70.5 -211t-9.5 -252t57 -141q-44 -26 -57 -151.5t9.5 -270t70.5 -219.5h-340q41 65 64.5 186 t21 239t-30.5 177h-221q-28 -60 -32 -177t19.5 -238.5t67.5 -186.5h-342z" />
<glyph unicode="]" horiz-adv-x="409" d="M61 -55h158v1358h-158v49h287v-1458h-287v51z" />
<glyph unicode="^" horiz-adv-x="929" d="M63 403q1 69 27.5 128t66.5 96t83.5 59.5t85.5 28.5q-35 3 -72 20t-71.5 47.5t-56.5 82.5t-22 116q0 75 30 131.5t81.5 89t112.5 48.5t131 16q75 0 151 -34t119 -99q18 -27 47 -27l-158 -176q3 96 -39.5 166.5t-121.5 70.5q-73 0 -116.5 -50.5t-43.5 -135.5 q0 -97 43.5 -161t110.5 -64h192v-88h-182q-55 0 -96.5 -26.5t-63 -69.5t-32 -89.5t-9.5 -93.5q2 -136 51 -225t146 -92q37 -2 75 9.5t70.5 35t53.5 64t22 91.5q1 107 -43 156q-40 44 -86 1q-7 -6 -14 -15q-62 48 -34 112q23 53 87 78q86 33 160 -18q24 -15 43 -39 q46 -55 64 -120.5t9 -128.5t-42 -122.5t-84 -104t-123 -71.5t-154 -27q-81 0 -152 26t-127.5 77t-88.5 135t-30 192z" />
<glyph unicode="`" horiz-adv-x="1024" d="M250.5 1561.5q-3.5 33.5 25.5 72.5q56 70 123 25l23 -21l260 -260l-47 -61l-324 174q-18 8 -26 14q-31 23 -34.5 56.5z" />
<glyph unicode="a" horiz-adv-x="817" d="M10 0q64 116 82 346q12 144 12 201v19q-5 55 -26 73q34 17 84.5 137t111 273t105.5 219h6q51 -55 105.5 -157.5t91.5 -194.5t75 -173.5t60 -101.5q-10 -18 -14.5 -39.5t-3.5 -54.5t3.5 -55t9 -71.5t9.5 -74.5q10 -90 16 -134.5t24.5 -108.5t45.5 -103h-336q52 85 52 271 q0 22 -1 46h-318q0 -203 58 -317h-252zM207 414h307q-4 84 -26.5 147t-53.5 80q14 16 14 53q0 38 -15 96q-29 116 -87 224q-32 -69 -57.5 -146t-35.5 -144q-3 -19 -3 -34q0 -37 18 -49q-30 -27 -43 -83t-18 -144z" />
<glyph unicode="b" horiz-adv-x="856" d="M20 1159q35 47 48 86h374q154 0 230.5 -69.5t83.5 -180.5q1 -12 1 -24q-1 -103 -55 -171q-60 -76 -157 -104q116 -16 193 -102.5t77 -220.5q0 -97 -32.5 -170.5t-90 -117t-131 -64.5t-162.5 -21h-325q46 75 70 219q15 94 16 180q0 45 -4 89q-12 126 -58 151q62 36 62 272 q0 109 -27 256h-22q-62 0 -91 -8zM324 276q0 -119 22 -180h39q64 0 112.5 40t72.5 100t24 126q0 126 -59 204.5t-148 78.5h-63v-369zM324 745l38 -2h11q27 -1 55 7q34 10 68 33t55.5 70t21.5 112q0 87 -55 144.5t-143 57.5h-39q-12 -93 -12 -153v-269z" />
<glyph unicode="c" horiz-adv-x="837" d="M20 639q29 18 42 46t20 73q21 143 73 258t132.5 184.5t175.5 69.5q71 0 141.5 -35t112.5 -98q7 -13 16.5 -19.5t14 -7t16.5 -2.5l-160 -186v26q0 223 -133 223q-43 -1 -76 -38t-52 -98t-29.5 -129t-12.5 -142v-7q0 -78 61 -118q-60 -43 -63 -125v-13q0 -61 8 -125 q9 -72 29 -142.5t58 -115t89 -44.5q67 0 107 39.5t53 99.5q8 32 8 63q0 49 -20 92q-22 48 -51 48h-5q-22 -4 -40 -37q-56 45 -56 97q0 17 6 35q17 55 76 81q32 15 63 14q41 0 79 -25q34 -22 59 -63q40 -64 52 -140q4 -28 4 -55q0 -47 -12 -91q-20 -70 -62 -128 q-42 -60 -114 -94q-70 -34 -156 -33h-5q-99 1 -184 73t-139.5 196.5t-67.5 277.5q-7 80 -58 115z" />
<glyph unicode="d" horiz-adv-x="905" d="M51 0q47 75 71 219q15 94 16 180q0 45 -4 89q-12 126 -58 151q46 25 58 142q4 41 4 84q0 81 -16 169q-24 136 -71 211h305q96 0 171.5 -30.5t123.5 -77t84 -118t54.5 -136t33.5 -148.5q7 -40 19.5 -58.5t42.5 -37.5q-31 -23 -41.5 -39t-16.5 -53q-13 -81 -33.5 -154 t-57.5 -147t-85.5 -127t-119.5 -86t-156 -33h-324zM303 276q0 -87 14 -180h60q66 0 121.5 77t82.5 177q25 93 25 173v12q-1 42 -12.5 61.5t-44.5 42.5q32 20 43.5 39.5t11.5 62.5q0 96 -28 192.5t-83.5 165t-123.5 68.5h-54q-12 -82 -12 -153v-168q0 -76 18 -133t48 -74 q-27 -14 -46.5 -64.5t-19.5 -113.5v-185z" />
<glyph unicode="e" horiz-adv-x="733" d="M51 0q48 75 72 219q16 95 16 181q-1 44 -5 88q-12 126 -58 151q46 25 58 142q4 40 5 82q0 81 -16 170q-24 135 -72 212h613q-38 -118 -38 -245q0 -54 7 -111q-44 -10 -98 -55q1 38 3 82q0 5 1 10q0 38 -10 78q-11 44 -28 80.5t-52 59.5t-82 23h-50q-14 -68 -14 -153v-307 q64 43 117 96q53 -59 129 -103q-80 -43 -129 -104q-40 51 -117 96v-330q0 -141 16 -266h41q45 0 79.5 19t54.5 50.5t34.5 71.5t18 81.5t5.5 81.5q1 11 1 22q0 27 -4 49q55 -45 100 -55q-7 -48 -7 -105q0 -50 6 -107q12 -122 44 -204h-641z" />
<glyph unicode="f" horiz-adv-x="684" d="M51 0q37 56 59 154t27 204q1 18 1 35q0 84 -13 149q-15 78 -49 97q46 25 58 142q5 40 5 82q0 81 -16 170q-24 135 -72 212h613q-38 -118 -38 -245q0 -55 7 -111q-44 -10 -98 -55q2 17 2 35q0 32 -6 67q-9 56 -29.5 108.5t-61 87.5t-92.5 35h-29q-16 -66 -16 -153v-307 q71 49 117 96q53 -59 129 -103q-80 -43 -129 -104q-45 54 -117 96v-332q0 -94 26 -198.5t64 -161.5h-342z" />
<glyph unicode="g" horiz-adv-x="839" d="M20 639q27 19 40 47.5t20 73.5q31 220 140.5 364t250.5 144q71 0 137 -33t107 -98q4 -7 8.5 -11.5l7 -7t8 -4.5t7.5 -2.5t8.5 -1t7.5 -0.5l-160 -186v26q0 221 -131 221q-42 0 -76 -36.5t-54.5 -96.5t-31 -130t-10.5 -142q0 -87 61 -127q-58 -38 -61 -125v-24 q0 -55 7 -114q9 -72 28.5 -142t58.5 -115t90 -45q59 0 113 32q-23 44 -23 97v153q0 99 -13.5 202.5t-27.5 146.5h267q-38 -79 -51 -213q-7 -68 -7 -131q0 -61 6 -117q13 -113 44 -144q-45 -15 -97 -48t-100.5 -54t-112.5 -21q-88 0 -160 42t-120.5 117.5t-80 173 t-44.5 216.5q-5 42 -17 68.5t-39 44.5z" />
<glyph unicode="h" horiz-adv-x="894" d="M51 0q47 75 70 219q15 93 15 179q0 47 -4 91q-12 126 -58 152q46 25 58 141q4 41 4 85q0 80 -15 167q-23 135 -70 211h340q-39 -61 -61 -167q-21 -104 -22 -204q0 -106 20 -174l12 -47q55 37 106 88q51 -55 107 -90l14 49q15 74 17 170v12q0 92 -20 194q-22 110 -62 169 h342q-48 -75 -72 -211q-16 -90 -16 -172q0 -42 4 -80q12 -116 57 -141q-45 -26 -57 -152q-4 -42 -4 -86q0 -88 16 -184q24 -144 72 -219h-342q42 64 64 186q21 116 20 226v10q-1 115 -21 180l-6 27q-60 -30 -113 -94q-45 57 -110 94l-8 -27q-20 -65 -22 -180v-14 q0 -108 20 -222q22 -122 65 -186h-340z" />
<glyph unicode="i" horiz-adv-x="442" d="M51 0q47 75 71 219q15 94 16 180q0 45 -4 89q-12 126 -58 151q46 25 58 141q4 40 4 84q0 80 -16 169q-24 136 -71 212h340q-49 -76 -72 -212q-14 -86 -14 -163q1 -46 5 -89q14 -116 57 -142q-43 -26 -57 -151q-5 -46 -5 -95q0 -83 14 -174q23 -144 72 -219h-340z" />
<glyph unicode="j" horiz-adv-x="808" d="M16 376q15 77 64 142q63 84 141 84q11 0 23 -2q65 -10 100 -65q20 -31 20 -61q0 -27 -16 -53q-12 -19 -33 -34q-22 29 -45 29l-33 -16q-38 -38 -40 -120v-14q0 -28 6 -55q14 -63 48.5 -101t102.5 -38q60 0 97.5 39.5t50.5 99.5q20 86 20 173q0 42 -4 85q-15 131 -65 170 q45 25 61 141q7 52 7 109q0 69 -11 143q-19 137 -68 213h326q-48 -76 -72 -212q-15 -89 -15 -169q0 -43 5 -84q12 -116 57 -141q-47 -49 -51 -188q-1 -11 -1 -21q0 -125 50 -209q-18 -17 -49.5 -54t-60 -67t-67 -61t-88.5 -48.5t-107 -17.5q-89 0 -163 35t-118.5 93.5 t-65.5 128.5q-12 41 -12 84q0 31 6 62z" />
<glyph unicode="k" horiz-adv-x="876" d="M51 0q47 76 71 220q15 94 15 179q-1 45 -5 89q-12 126 -58 151q44 43 56 167q5 45 4 90q0 80 -14 162q-22 128 -67 187h338q-40 -61 -65 -164t-25 -200v-181h55q32 0 45 25q78 135 134 289q45 125 45 199q0 17 -2 32h262q-46 -45 -96.5 -113.5t-102.5 -156.5t-81.5 -141 t-72.5 -134q59 -48 121 -134.5t99 -184.5q2 -5 12.5 -33t15 -39t15.5 -40t18 -45.5t18.5 -44t21.5 -48t21.5 -44.5t23.5 -45.5t24 -41.5h-297q-8 125 -69 293.5t-128 286.5q-3 9 -13 15.5t-20 6.5h-49q0 -12 0.5 -80.5t1 -105.5t5 -107t12.5 -117t23 -101t36 -91h-328z" />
<glyph unicode="l" horiz-adv-x="731" d="M51 0q47 76 71 220q15 94 15 179q-1 45 -5 89q-12 126 -58 151q46 25 58 142q4 41 5 85q0 80 -15 167q-23 135 -71 212h340q-50 -76 -73 -212q-14 -86 -14 -163q0 -46 4 -89q14 -116 59 -142q-17 -13 -28.5 -32t-17.5 -34t-9.5 -45.5t-4 -46.5t-0.5 -59.5v-61.5v-17 q0 -177 62 -245q25 -28 52 -28q18 0 37 12q57 37 71 155q2 13 3 27q1 9 1 17q0 52 -21 105q-24 61 -57 101q61 17 110 43t107 80q-34 -125 -34 -272q0 -28 1 -58q8 -182 72 -280h-660z" />
<glyph unicode="m" horiz-adv-x="1013" d="M51 0q47 75 71 219q15 94 16 180q0 45 -4 89q-12 126 -58 151q46 25 58 141q4 40 4 84q0 80 -16 169q-24 136 -71 212h314q-7 -49 -7 -102q0 -224 134 -504q184 272 184 501q0 53 -10 105h297q-49 -76 -73 -212q-15 -86 -15 -165q1 -45 5 -87q14 -116 58 -142 q-44 -26 -58 -151q-5 -46 -5 -94q1 -84 15 -175q24 -144 73 -219h-314q18 40 30.5 98.5t18 107.5t7.5 136.5t2 130.5t-2.5 149t-2.5 136q-32 -106 -133 -308t-106 -214h-10q-8 16 -48.5 96t-58 116.5t-47.5 101.5t-48 115t-28 93q-2 -82 -2 -155q0 -459 86 -603h-256z" />
<glyph unicode="n" horiz-adv-x="819" d="M51 0q47 76 71 220q15 94 15 179q-1 45 -5 89q-12 126 -58 151q46 25 58 142q4 41 5 85q0 80 -15 167q-23 135 -71 212h264q-15 -18 -10.5 -52.5t14.5 -63.5t21 -48q37 -64 127.5 -162t120.5 -141q1 25 1 50q0 102 -16 210q-20 134 -67 207h262q-49 -76 -72 -212 q-15 -87 -15 -166q0 -44 5 -86q13 -116 57 -142q-44 -26 -57 -151q-5 -45 -5 -93q0 -84 15 -176q23 -144 72 -219h-262q35 53 58.5 133t23.5 162q0 51 -12.5 99t-28.5 83.5t-52 84t-61.5 77.5t-79.5 88q-64 71 -127 191q-2 -28 -2 -54q0 -70 12 -126q16 -78 52 -99 q-45 -26 -59 -151q-5 -46 -4 -95q0 -83 14 -174q23 -144 73 -219h-262z" />
<glyph unicode="o" d="M20 643q47 30 60 119q31 223 135.5 365.5t245.5 142.5t243 -141.5t138 -366.5q7 -46 19.5 -74t41.5 -45q-48 -33 -57 -115q-20 -156 -72 -279.5t-133.5 -197.5t-179.5 -74q-153 0 -256 155t-129 396q-9 81 -56 115zM289 518q0 -442 172 -442q55 0 93 44.5t54.5 117 t22.5 140.5q5 51 5 104q0 18 -1 36q-2 50 -10.5 77.5t-36.5 47.5q28 17 37.5 46.5t9.5 78.5v18q-1 66 -7 124q-8 66 -25.5 128t-54 97.5t-87.5 35.5q-50 0 -86 -35.5t-53.5 -97.5t-25 -127.5t-7.5 -142.5q0 -49 9.5 -78.5t37.5 -46.5q-29 -20 -38 -48.5t-9 -76.5z" />
<glyph unicode="p" horiz-adv-x="786" d="M51 0q48 75 71 219q16 94 16 180q0 46 -4 89q-13 126 -58 151q45 25 58 141q4 41 4 84q0 80 -16 169q-23 136 -71 212h334q83 0 152.5 -27.5t114 -73t68.5 -104.5q23 -57 23 -117v-5q-1 -164 -99.5 -264.5t-252.5 -100.5h-88v-129q0 -135 14.5 -241t59.5 -183h-326z M303 651h57q191 0 191 258q0 66 -18 122t-62 96t-109 40h-53q-6 -70 -6 -157v-359z" />
<glyph unicode="q" d="M20 643q49 34 62 121q28 217 133.5 361.5t247.5 144.5t248 -143t131 -363q9 -85 61 -121q-51 -32 -57 -113q-12 -146 -63 -270t-133 -199.5t-177 -78.5q40 -69 92 -113q-58 -47 -104 -129q-44 76 -103 129q57 61 93 113q-142 6 -242.5 159.5t-130.5 388.5q-10 82 -58 113 zM289 520v-21q0 -43 3 -88q4 -56 16 -116.5t31 -107t51 -77t73 -30.5q50 0 86.5 44.5t54.5 115t26 141.5q5 56 5 110v29q-2 50 -10.5 77.5t-36.5 47.5q29 17 38 46t9 79q0 61 -4 114t-16 108t-30.5 94t-49.5 63.5t-72 24.5q-51 0 -87 -35.5t-54 -98t-25.5 -128t-7.5 -142.5 q0 -50 9 -79t38 -46q-28 -20 -36.5 -47.5t-10.5 -77.5z" />
<glyph unicode="r" horiz-adv-x="890" d="M51 1245h334q165 0 268 -93.5t103 -229.5q0 -104 -72.5 -184t-175.5 -99q65 -33 107 -111.5t73 -181.5q34 -112 82 -163q24 -25 47 -25q24 0 49 26q24 -41 24 -76q0 -16 -4 -30q-16 -46 -65 -76q-47 -29 -102 -29h-4q-58 2 -100.5 45t-57.5 119q-55 276 -178 465h-76 q0 -33 0.5 -82.5t0.5 -101.5t4.5 -111.5t12 -112.5t22.5 -105t36 -89h-326q47 76 71 220q15 94 15 179q-1 45 -5 89q-12 126 -58 151q61 36 61 215v33q-3 103 -25.5 201t-60.5 157zM303 700h57q96 0 141.5 63.5t47.5 158.5v8q0 94 -46 164q-48 73 -141 73h-53 q-6 -70 -6 -157v-310z" />
<glyph unicode="s" horiz-adv-x="806" d="M26 277q-4 22 -4 45q0 36 10 76q16 64 62 118q58 70 138 70q10 0 21 -1q72 -8 112 -59q22 -29 22 -58q0 -28 -20 -56q-11 -16 -29 -31q-28 29 -54 29q-20 0 -39 -17q-40 -36 -40 -115q0 -32 8 -63q13 -53 62 -95t116 -42q195 0 203 270v10q0 39 -14 82q-16 49 -41 86 q-51 72 -131 105q-50 21 -86 21q-20 0 -35 -7q3 20 -12.5 46.5t-33.5 45t-59 58.5q-65 65 -76 149q-4 25 -4 49q0 71 32 128q42 76 119.5 113.5t176.5 37.5q73 0 147.5 -34t122.5 -99q8 -12 18.5 -18t14 -6.5t15.5 -2.5l-160 -186v15q0 53 -12 101q-14 54 -56 93t-106 39 q-57 0 -94 -37t-37 -95q0 -52 29.5 -89.5t78.5 -73.5q96 -68 154 -68q17 0 30 6v-5q0 -41 72 -105q70 -61 104.5 -156t34.5 -197q0 -90 -38 -164t-97.5 -118.5t-128 -68t-135.5 -23.5t-129.5 24.5t-110 64.5t-79.5 95t-42 113z" />
<glyph unicode="t" horiz-adv-x="831" d="M20 1245h791q-38 -118 -38 -245q0 -54 7 -111q-48 -11 -98 -55q2 16 2 34q0 46 -12 101q-16 76 -57 137t-95 61q-22 -96 -26 -210q-1 -23 -1 -46q-1 -87 13 -160q18 -92 55 -112q-44 -26 -57 -151q-5 -45 -5 -93q0 -84 15 -176q23 -144 72 -219h-340q46 75 70 219 q15 94 16 180q0 45 -4 89q-12 126 -58 151q37 21 54 113q13 71 13 156q0 24 -1 50q-5 114 -27 209q-51 0 -91 -61q-42 -62 -58 -138q-12 -56 -11 -102q0 -17 1 -32q-54 45 -99 55q7 56 7 111q0 127 -38 245z" />
<glyph unicode="u" horiz-adv-x="862" d="M41 1245h340q-49 -76 -72 -212q-15 -87 -15 -166q0 -44 5 -86q13 -116 57 -142q-52 -39 -66 -171q-5 -43 -5 -85q0 -88 20 -174q13 -55 59.5 -96t106.5 -41q61 0 108 41t60 96q20 87 20 175q-1 42 -5 85q-14 131 -64 170q44 26 57 142q5 42 5 86q0 79 -15 166 q-23 136 -72 212h256q-47 -77 -71 -212q-15 -88 -15 -169q1 -43 5 -83q12 -117 57 -142q-47 -49 -51 -188q0 -11 -1 -21q0 -125 50 -209q-110 -248 -357 -248q-125 0 -222.5 61t-147.5 187q50 84 50 209v21q-4 139 -52 188q45 25 57 142q4 40 4 81q1 81 -15 171 q-24 135 -71 212z" />
<glyph unicode="v" horiz-adv-x="858" d="M31 1245h336q-52 -81 -53 -278q0 -14 1 -29q1 -96 34.5 -188.5t66.5 -110.5q-23 -32 -23 -101q1 -38 7 -86q20 -138 77 -239q31 61 59 153q28 91 38 171q2 20 3 36q0 49 -22 66q29 22 52 103.5t24 195.5v17q0 191 -64 290h260q-42 -76 -61.5 -145t-20.5 -162 q-1 -30 -4 -77.5t-4.5 -76.5t-1 -61.5t6.5 -53t18 -30.5q-30 -21 -63.5 -103t-62.5 -175.5t-81.5 -204t-114.5 -176.5q-2 -2 -4 -2t-2 2q-49 46 -92.5 126.5t-74.5 163.5t-58.5 161.5t-54.5 136t-52 71.5q13 13 20.5 33t10.5 38t1.5 50t-3.5 51.5t-7 62.5t-7 64 q-9 81 -15.5 122.5t-23.5 93t-45 91.5z" />
<glyph unicode="w" horiz-adv-x="1271" d="M31 1245h336q-52 -81 -52 -278v-29q1 -96 34.5 -188.5t66.5 -110.5q-25 -34 -25 -106q1 -31 5 -71q16 -128 73 -231q31 66 54 149t29 155q1 15 1 28q0 51 -18 76q45 40 45 236v33v30q-3 223 -74 307h332q-34 -53 -55 -136t-21 -171q0 -105 21 -187.5t59 -113.5 q-23 -32 -23 -96q0 -35 7 -79q19 -126 77 -231q30 60 56 148q27 88 33 163q1 14 1 26q0 53 -24 71q29 22 51.5 103.5t23.5 195.5v18q0 192 -63 289h260q-41 -78 -61 -146.5t-21 -160.5q-1 -30 -4 -77.5t-4.5 -76.5t-1 -61.5t6.5 -53t18 -30.5q-25 -17 -49 -72.5t-47.5 -131 t-50.5 -155.5t-69.5 -163t-93.5 -137q-3 -3 -6 0q-34 33 -62 76t-50 99t-35.5 97t-33 108.5t-28.5 94.5q-4 -12 -21 -65.5t-24.5 -74.5t-24.5 -69.5t-30.5 -76t-33 -66t-41.5 -68.5t-46 -55q0 -2 -2 -2t-4 2q-59 56 -110.5 165t-81.5 207.5t-65 184t-65 102.5q11 12 18.5 26 t10.5 35t5 35.5t0 46.5t-3 46t-6 55t-6 55q-12 113 -29.5 181t-58.5 126z" />
<glyph unicode="x" horiz-adv-x="925" d="M41 0q50 72 106.5 179.5t123.5 245.5t104 208l-150 356q-33 79 -70.5 132t-101.5 124h297q-1 -8 -1 -16q0 -27 8 -61q10 -44 20 -72.5t41 -106.5l69 -176l95 207q38 84 48 125q8 32 8 74q0 13 -1 26h233q-107 -79 -190 -256l-141 -295l139 -327q44 -103 103 -209 t104 -158h-287q1 10 1 20q0 40 -13 86q-16 58 -56 156l-102 250l-98 -242q-36 -92 -44 -156q-2 -22 -3 -41q0 -40 10 -73h-252z" />
<glyph unicode="y" horiz-adv-x="999" d="M41 1245h297q-1 -8 -1 -16q0 -28 9 -61q10 -44 21.5 -74t42.5 -105q47 -112 127 -211q59 79 114 211q6 15 21.5 52.5t20 50t14 39t12 41t5 34.5t1.5 39h233q-111 -86 -180 -231q-3 -6 -43.5 -81t-79 -151t-49.5 -110q-17 -89 -17 -221q0 -51 3 -109q6 -123 24.5 -196.5 t61.5 -145.5h-342q73 105 80 342q1 24 1 47q0 84 -9 159q-11 96 -29 144l-162 297q-86 155 -176 256z" />
<glyph unicode="z" horiz-adv-x="790" d="M41 0q35 58 61.5 111t39.5 85t46 119q34 91 58 186q16 67 17 108q0 17 -3 30q34 36 76.5 123t73.5 176q49 134 57 229h-131q-150 0 -150 -262q0 -33 2 -69q-33 33 -96 55q7 55 7 111q0 121 -33 243h665q-42 -53 -74.5 -124t-74.5 -183q-30 -80 -51 -172q-14 -63 -14 -99 q0 -17 3 -28q-11 -9 -21 -21t-18 -23.5t-17 -29.5t-15 -29.5t-14.5 -35t-13 -34.5t-13 -38.5t-11 -36t-11.5 -39t-11 -37.5q-44 -147 -51 -219h84q38 0 64.5 4t54 15.5t46.5 37t29 64.5q14 55 16 193v46q0 100 -6 138q30 -30 107 -55q-7 -50 -7 -130q0 -62 4 -143 q10 -185 38 -266h-713z" />
<glyph unicode="{" horiz-adv-x="385" d="M61 653q28 17 40.5 41.5t17.5 67.5q59 530 205 653q-19 -54 -32 -144.5t-17.5 -155t-11.5 -197.5t-9 -170q-3 -71 -45 -95q44 -31 47 -88q3 -52 8.5 -176.5t10 -204.5t17.5 -177t32 -154q-154 181 -205 679q-12 101 -58 121z" />
<glyph unicode="|" horiz-adv-x="1130" d="M41 672q0 136 70 315h73v76q47 -12 100.5 -3t91.5 25.5t91.5 32t99.5 15.5q42 0 94 -15t89.5 -30.5t92.5 -23.5t103 7v-84h72q72 -176 72 -315q0 -64 -21 -115.5t-46 -76t-46 -44t-21 -28.5q0 -42 74 -101q-54 -19 -113 -43t-136 -59t-137 -73.5t-81 -70.5 q-22 37 -80 76.5t-133.5 72.5t-132.5 55t-113 40q2 2 11.5 11t13.5 13.5t12.5 14t13 16t9.5 15t7.5 17t2.5 16.5q0 9 -21 29t-45.5 45t-45.5 76t-21 114zM109 672q0 -127 75 -170q58 -35 58 -94q0 -32 -23 -70q242 -88 348 -180q90 79 344 178q-22 36 -22 72q0 59 57 94 q76 46 76 170t-51 248h-94v75q-100 3 -232 56q-41 14 -78 14q-41 0 -82 -14q-132 -53 -233 -56v-75h-92q-51 -131 -51 -248zM127 672q0 106 45 229h98v76q122 12 224 55q44 15 73 15q31 0 72 -15q100 -43 219 -55v-76h100q46 -125 46 -229q0 -118 -68 -156q-66 -41 -66 -108 q0 -17 13 -64q-157 -56 -316 -164q-106 83 -323 166q16 50 16 62q0 68 -65 108q-68 38 -68 156zM307 539h99q-25 11 -25 22v115h68v-215q0 -18 -41 -39h335l70 94q-50 -35 -98 -35h-178v195h69v-115q0 -8 -24 -22h100q-25 14 -25 22v115h88q27 0 43 -19v76q-18 -18 -43 -18 h-88v100h148q30 0 55 -14l-26 55h-250q22 -14 22 -25v-116h-69v184q0 16 43 43h-168q37 -27 37 -43v-184h-68v116q0 11 25 25h-99q23 -14 23 -25v-270q0 -11 -23 -22zM532 322q11 -16 20 -37.5t12 -34.5l3 -14q10 49 35 86q-7 2 -12.5 1t-8.5 -3l-3 -3q-1 17 -11 33 q-4 -7 -6 -15.5t-2 -12.5v-5q-1 1 -3.5 2.5t-9.5 4t-14 -1.5z" />
<glyph unicode="}" horiz-adv-x="385" d="M61 -147q19 57 32 154t17.5 177t10 204.5t8.5 176.5q3 57 47 88q-42 24 -45 95q-2 37 -9 170t-11.5 197.5t-17.5 155t-32 144.5q146 -123 205 -653q5 -43 17.5 -67.5t40.5 -41.5q-46 -20 -58 -121q-51 -498 -205 -679z" />
<glyph unicode="&#xa1;" horiz-adv-x="385" d="M61 0q90 493 84 909h95q3 -415 84 -909h-263zM104 1137q0 46 24 88.5t65 42.5q42 0 66 -42t24 -89t-24 -88t-66 -41q-41 0 -65 41t-24 88z" />
<glyph unicode="&#xa2;" horiz-adv-x="630" d="M61 688q33 18 43 80q11 57 29 108.5t45.5 102t69.5 84t92 39.5v143h51v-141q97 -12 160 -109q16 -26 43 -30l-129 -146q4 20 0.5 52t-10 62.5t-28.5 52.5t-56 22q-44 0 -72 -43t-36.5 -95.5t-6.5 -105.5q2 -33 7.5 -49.5t23.5 -26.5q-19 -13 -25 -30t-6 -46 q-1 -43 5 -86.5t19 -86t39.5 -69t61.5 -26.5q36 0 63.5 24t36.5 60q17 62 -8 102q-20 33 -48 11l-11 -11q-48 47 -23 101q20 43 67 53q63 14 109 -52l4 -7q33 -53 34 -118.5t-24.5 -120t-76.5 -94t-113 -44.5v-142h-51v144q-179 16 -238 362q-5 30 -13 47t-28 29z" />
<glyph unicode="&#xa3;" horiz-adv-x="835" d="M61 623v51h103q-41 144 -47 206q-3 28 -2 54q1 99 51.5 176.5t129.5 117.5t169 40q74 0 146.5 -34t115.5 -99q18 -27 47 -27l-158 -176q3 98 -36 168.5t-117 70.5q-58 0 -96.5 -36t-53 -86t-14.5 -111q0 -29 4 -65.5t8 -60.5t13 -71.5t12 -66.5h207v-51h-197 q57 -318 -98 -551h96q91 0 165.5 35t98.5 110q33 100 15 254q53 -41 102 -55q-13 -90 -1.5 -212t44.5 -204h-684q71 125 100 242.5t24 201.5t-30 179h-117z" />
<glyph unicode="&#xa5;" horiz-adv-x="1046" d="M41 1245h297q-3 -34 7.5 -77.5t22 -73.5t42.5 -105q47 -112 127 -211q59 79 114 211q6 15 21.5 52.5t20 50t14 39t12 41t5 34.5t1.5 39h233q-111 -86 -180 -231q-3 -6 -43.5 -81t-79 -151t-49.5 -110q-14 -65 -16 -174h194v-52h-194v-57h194v-51h-192q6 -121 24.5 -194 t61.5 -144h-342q73 106 80 338h-164v51h164v57h-164v52h160q-9 127 -33 194l-162 297q-86 155 -176 256z" />
<glyph unicode="&#xa8;" horiz-adv-x="618" d="M41 1489q0 53 26 99t72 46q47 0 74 -46t27 -99q0 -51 -27 -97t-74 -46q-45 0 -71.5 46t-26.5 97zM399 1489q0 52 26.5 98.5t72.5 46.5q48 0 74 -45.5t26 -99.5q0 -52 -26 -97.5t-74 -45.5q-46 0 -72.5 46t-26.5 97z" />
<glyph unicode="&#xad;" horiz-adv-x="788" d="M76 539q2 5 6 10q142 175 305 188q28 2 72 -1.5t72.5 -4.5t65 14t67.5 50q23 25 43 5t2 -44q-58 -79 -142 -135t-166 -56q-20 0 -58.5 2.5t-63 2.5t-56 -4.5t-57.5 -20t-47 -41.5q-17 -21 -35 -6q-19 16 -8 41z" />
<glyph unicode="&#xb4;" horiz-adv-x="1024" d="M393 1378l260 260q15 15 23 21q67 45 123 -25q29 -39 26 -72.5t-34 -56.5l-27 -14l-324 -174z" />
<glyph unicode="&#xbf;" horiz-adv-x="749" d="M61 266q0 66 21.5 123.5t53 96t69 80t69 77.5t53 87.5t21.5 109.5v75h92v-75q0 -59 -19.5 -115.5t-47.5 -104t-56 -98t-47.5 -117t-19.5 -139.5q0 -87 36.5 -136.5t108.5 -49.5q53 0 85 36t42 86t8 115l158 -176q-30 0 -47 -26q-44 -66 -113 -99.5t-143 -33.5 q-149 0 -236.5 68t-87.5 216zM289 1143q0 47 24 89t66 42q41 0 64.5 -42.5t23.5 -88.5q0 -47 -23.5 -88t-64.5 -41t-65.5 41t-24.5 88z" />
<glyph unicode="&#xc0;" horiz-adv-x="909" d="M12 0q48 64 92.5 181.5t67.5 230.5l39 190q-47 -11 -63 -42t16 -62q-39 -50 -91 -28q-43 19 -58 70q-21 71 40 132q64 64 183 67l36 199q32 180 -12 307h402q-22 -57 -25.5 -153.5t9 -189t42 -168.5t66.5 -95q-24 -15 -29 -71t8.5 -132t37 -157.5t57.5 -157t69 -121.5 h-354q28 63 30.5 184t-16.5 228q-9 54 -40 96t-71 64.5t-77 33.5t-68 12l-35 -206q-20 -117 -20 -233.5t26 -178.5h-262zM246.5 1561.5q-3.5 33.5 25.5 72.5q56 70 123 25l23 -21l260 -260l-47 -61l-324 174q-18 8 -26 14q-31 23 -34.5 56.5zM322 731q122 -22 202 -100 q-1 9 -9.5 67.5t-14 94.5t-16 101t-19.5 111.5t-21 98.5t-24 88q-21 -73 -60 -254q-18 -88 -38 -207z" />
<glyph unicode="&#xc1;" horiz-adv-x="909" d="M12 0q48 64 92.5 181.5t67.5 230.5l39 190q-47 -11 -63 -42t16 -62q-39 -50 -91 -28q-43 19 -58 70q-21 71 40 132q64 64 183 67l36 199q32 180 -12 307h402q-22 -57 -25.5 -153.5t9 -189t42 -168.5t66.5 -95q-24 -15 -29 -71t8.5 -132t37 -157.5t57.5 -157t69 -121.5 h-354q28 63 30.5 184t-16.5 228q-9 54 -40 96t-71 64.5t-77 33.5t-68 12l-35 -206q-20 -117 -20 -233.5t26 -178.5h-262zM233 1378l261 260q14 15 22 21q67 45 123 -25q29 -39 26 -72.5t-34 -56.5l-27 -14l-323 -174zM322 731q122 -22 202 -100q-1 9 -9.5 67.5t-14 94.5 t-16 101t-19.5 111.5t-21 98.5t-24 88q-21 -73 -60 -254q-18 -88 -38 -207z" />
<glyph unicode="&#xc2;" horiz-adv-x="909" d="M12 0q48 64 92.5 181.5t67.5 230.5l39 190q-47 -11 -63 -42t16 -62q-39 -50 -91 -28q-43 19 -58 70q-21 71 40 132q64 64 183 67l36 199q32 180 -12 307h402q-22 -57 -25.5 -153.5t9 -189t42 -168.5t66.5 -95q-24 -15 -29 -71t8.5 -132t37 -157.5t57.5 -157t69 -121.5 h-354q28 63 30.5 184t-16.5 228q-9 54 -40 96t-71 64.5t-77 33.5t-68 12l-35 -206q-20 -117 -20 -233.5t26 -178.5h-262zM170 1452l213 164q19 19 70 19t71 -19l211 -164l-37 -53l-243 92l-250 -92zM322 731q122 -22 202 -100q-1 9 -9.5 67.5t-14 94.5t-16 101t-19.5 111.5 t-21 98.5t-24 88q-21 -73 -60 -254q-18 -88 -38 -207z" />
<glyph unicode="&#xc3;" horiz-adv-x="909" d="M12 0q48 64 92.5 181.5t67.5 230.5l39 190q-47 -11 -63 -42t16 -62q-39 -50 -91 -28q-43 19 -58 70q-21 71 40 132q64 64 183 67l36 199q32 180 -12 307h402q-22 -57 -25.5 -153.5t9 -189t42 -168.5t66.5 -95q-24 -15 -29 -71t8.5 -132t37 -157.5t57.5 -157t69 -121.5 h-354q28 63 30.5 184t-16.5 228q-9 54 -40 96t-71 64.5t-77 33.5t-68 12l-35 -206q-20 -117 -20 -233.5t26 -178.5h-262zM150 1489q97 129 194 129q46 0 115.5 -32t120.5 -32q54 0 129 52l51 -52q-97 -129 -195 -129q-48 0 -116.5 32t-116.5 32q-58 0 -131 -51zM322 731 q122 -22 202 -100q-1 9 -9.5 67.5t-14 94.5t-16 101t-19.5 111.5t-21 98.5t-24 88q-21 -73 -60 -254q-18 -88 -38 -207z" />
<glyph unicode="&#xc4;" horiz-adv-x="909" d="M12 0q48 64 92.5 181.5t67.5 230.5l39 190q-47 -11 -63 -42t16 -62q-39 -50 -91 -28q-43 19 -58 70q-21 71 40 132q64 64 183 67l36 199q32 180 -12 307h402q-22 -57 -25.5 -153.5t9 -189t42 -168.5t66.5 -95q-24 -15 -29 -71t8.5 -132t37 -157.5t57.5 -157t69 -121.5 h-354q28 63 30.5 184t-16.5 228q-9 54 -40 96t-71 64.5t-77 33.5t-68 12l-35 -206q-20 -117 -20 -233.5t26 -178.5h-262zM176 1489q0 53 26 99t72 46q47 0 74 -46t27 -99q0 -51 -27 -97t-74 -46q-45 0 -71.5 46t-26.5 97zM322 731q122 -22 202 -100q-1 9 -9.5 67.5t-14 94.5 t-16 101t-19.5 111.5t-21 98.5t-24 88q-21 -73 -60 -254q-18 -88 -38 -207zM535 1489q0 53 26 99t72 46q48 0 74 -45.5t26 -99.5q0 -52 -26 -97.5t-74 -45.5q-45 0 -71.5 46t-26.5 97z" />
<glyph unicode="&#xc5;" horiz-adv-x="909" d="M12 0q48 64 92.5 181.5t67.5 230.5l39 190q-47 -11 -63 -42t16 -62q-39 -50 -91 -28q-43 19 -58 70q-21 71 40 132q64 64 183 67l36 199q32 180 -12 307h402q-22 -57 -25.5 -153.5t9 -189t42 -168.5t66.5 -95q-24 -15 -29 -71t8.5 -132t37 -157.5t57.5 -157t69 -121.5 h-354q28 63 30.5 184t-16.5 228q-9 54 -40 96t-71 64.5t-77 33.5t-68 12l-35 -206q-20 -117 -20 -233.5t26 -178.5h-262zM252 1522q0 84 59.5 144t145.5 60q83 0 141.5 -60t58.5 -144t-58.5 -144.5t-141.5 -60.5q-86 0 -145.5 60.5t-59.5 144.5zM322 731q122 -22 202 -100 q-1 9 -9.5 67.5t-14 94.5t-16 101t-19.5 111.5t-21 98.5t-24 88q-21 -73 -60 -254q-18 -88 -38 -207zM334 1522q0 -51 36 -86t87 -35t84.5 35t33.5 86q0 52 -33.5 87.5t-84.5 35.5t-87 -36t-36 -87z" />
<glyph unicode="&#xc6;" horiz-adv-x="1161" d="M-2 0q53 66 106.5 179t90.5 235q14 46 56 179t67 217.5t34 129.5q42 193 0 305h742q-56 -174 -31 -354q-47 -10 -98 -55q2 37 3 79t-10 83.5t-28.5 75t-52 54.5t-80.5 21h-29q-31 -114 -35 -447v-55q62 41 117 96q51 -57 129 -102q-82 -46 -129 -104q-45 54 -117 96 q-1 -33 4 -271q2 -55 6.5 -102.5t8 -69.5t9.5 -54.5t7 -37.5h23q53 0 92 27t57.5 69t30 93t9.5 99t-3 87q54 -44 102 -55q-14 -91 -2.5 -212t43.5 -206h-639q40 62 63 173.5t23 223.5v232q-62 -37 -108 -92q-34 44 -109 92q-52 -189 -59 -215q-34 -126 -43.5 -231t12.5 -183 h-262zM358 659q50 33 101 84q47 -53 108 -92v209q0 178 -49 309q-49 -114 -80 -229q-49 -182 -80 -281z" />
<glyph unicode="&#xc7;" horiz-adv-x="804" d="M20 637q49 31 62 121q30 222 135.5 366t245.5 144q72 0 141.5 -34.5t110.5 -98.5q6 -9 13.5 -15t11 -8t12.5 -4t10 -2l-158 -186q4 249 -133 249q-43 0 -76 -36.5t-52 -97.5t-29.5 -129.5t-12.5 -143.5q-3 -83 61 -125q-60 -40 -63 -125q-1 -67 8 -138.5t29 -141t58 -114 t89 -44.5q66 0 106.5 39t53.5 100q20 83 -12 153q-24 53 -56 48q-23 -5 -40 -37q-73 59 -51 132q17 55 75 82q72 33 138 -12q33 -22 57 -61q39 -63 48 -137.5t-12.5 -143.5t-63 -127.5t-106 -95t-137.5 -39.5q31 -13 64 -43q33 -29 33 -84q0 -41 -30 -64.5t-65 -23.5 q-51 0 -76.5 43.5t7.5 83.5q22 27 51 13q22 -10 17 -28q-2 -8 -11 -15q-15 16 -26 -3q-9 -16 -3 -38q9 -31 41 -31q50 0 50 63q0 22 -15 41q-13 16 -43.5 36t-40.5 30q-7 7 -16 25q-131 26 -225.5 177t-116.5 367q-9 79 -58 113z" />
<glyph unicode="&#xc8;" horiz-adv-x="733" d="M51 0q48 75 71.5 219t11 269.5t-57.5 150.5q45 25 57.5 141.5t-11 252.5t-71.5 212h613q-56 -175 -31 -356q-48 -11 -98 -55q2 38 3 81.5t-10 88t-28.5 81t-52 59.5t-80.5 23h-52q-12 -74 -12 -153v-271q49 76 146 76q76 0 131 -55q60 -61 33 -137q-19 -55 -66 -76 q-49 -22 -86 16q34 67 14.5 109.5t-69.5 42.5q-52 0 -77.5 -38.5t-25.5 -100.5v-220q0 -139 16 -264h39q45 0 80 19t56 51t34.5 70.5t18 82t4.5 81t-4 71.5q54 -44 102 -55q-14 -91 -2 -212t45 -204h-641zM158.5 1561.5q-3.5 33.5 25.5 72.5q56 70 123 25l23 -21l260 -260 l-47 -61l-324 174q-18 8 -26 14q-31 23 -34.5 56.5z" />
<glyph unicode="&#xc9;" horiz-adv-x="733" d="M51 0q48 75 71.5 219t11 269.5t-57.5 150.5q45 25 57.5 141.5t-11 252.5t-71.5 212h613q-56 -175 -31 -356q-48 -11 -98 -55q2 38 3 81.5t-10 88t-28.5 81t-52 59.5t-80.5 23h-52q-12 -74 -12 -153v-271q49 76 146 76q76 0 131 -55q60 -61 33 -137q-19 -55 -66 -76 q-49 -22 -86 16q34 67 14.5 109.5t-69.5 42.5q-52 0 -77.5 -38.5t-25.5 -100.5v-220q0 -139 16 -264h39q45 0 80 19t56 51t34.5 70.5t18 82t4.5 81t-4 71.5q54 -44 102 -55q-14 -91 -2 -212t45 -204h-641zM170 1378l260 260q15 15 23 21q66 45 122 -25q29 -39 26 -72.5 t-34 -56.5l-26 -14l-324 -174z" />
<glyph unicode="&#xca;" horiz-adv-x="733" d="M51 0q48 75 71.5 219t11 269.5t-57.5 150.5q45 25 57.5 141.5t-11 252.5t-71.5 212h613q-56 -175 -31 -356q-48 -11 -98 -55q2 38 3 81.5t-10 88t-28.5 81t-52 59.5t-80.5 23h-52q-12 -74 -12 -153v-271q49 76 146 76q76 0 131 -55q60 -61 33 -137q-19 -55 -66 -76 q-49 -22 -86 16q34 67 14.5 109.5t-69.5 42.5q-52 0 -77.5 -38.5t-25.5 -100.5v-220q0 -139 16 -264h39q45 0 80 19t56 51t34.5 70.5t18 82t4.5 81t-4 71.5q54 -44 102 -55q-14 -91 -2 -212t45 -204h-641zM84 1452l213 164q19 19 70 19t71 -19l211 -164l-37 -53l-243 92 l-250 -92z" />
<glyph unicode="&#xcb;" horiz-adv-x="733" d="M51 0q48 75 71.5 219t11 269.5t-57.5 150.5q45 25 57.5 141.5t-11 252.5t-71.5 212h613q-56 -175 -31 -356q-48 -11 -98 -55q2 38 3 81.5t-10 88t-28.5 81t-52 59.5t-80.5 23h-52q-12 -74 -12 -153v-271q49 76 146 76q76 0 131 -55q60 -61 33 -137q-19 -55 -66 -76 q-49 -22 -86 16q34 67 14.5 109.5t-69.5 42.5q-52 0 -77.5 -38.5t-25.5 -100.5v-220q0 -139 16 -264h39q45 0 80 19t56 51t34.5 70.5t18 82t4.5 81t-4 71.5q54 -44 102 -55q-14 -91 -2 -212t45 -204h-641zM88 1489q0 53 26 99t72 46q47 0 74 -46t27 -99q0 -51 -27 -97 t-74 -46q-45 0 -71.5 46t-26.5 97zM446 1489q0 52 26.5 98.5t72.5 46.5q48 0 74 -45.5t26 -99.5q0 -52 -26 -97.5t-74 -45.5q-46 0 -72.5 46t-26.5 97z" />
<glyph unicode="&#xcc;" horiz-adv-x="442" d="M13 1561.5q-3 33.5 26 72.5q56 70 123 25l22 -21l260 -260l-47 -61l-323 174q-19 8 -27 14q-31 23 -34 56.5zM51 0q48 75 71.5 219t11 269.5t-57.5 150.5q45 25 57.5 141.5t-11 252.5t-71.5 212h340q-49 -76 -72 -212t-9.5 -252t57.5 -142q-44 -26 -57.5 -151t9.5 -269 t72 -219h-340z" />
<glyph unicode="&#xcd;" horiz-adv-x="442" d="M0 1378l260 260q15 15 23 21q67 45 123 -25q29 -39 25.5 -72.5t-34.5 -56.5l-26 -14l-324 -174zM51 0q48 75 71.5 219t11 269.5t-57.5 150.5q45 25 57.5 141.5t-11 252.5t-71.5 212h340q-49 -76 -72 -212t-9.5 -252t57.5 -142q-44 -26 -57.5 -151t9.5 -269t72 -219h-340z " />
<glyph unicode="&#xce;" horiz-adv-x="442" d="M-61 1452l213 164q19 19 70 19t71 -19l211 -164l-37 -53l-244 92l-250 -92zM51 0q48 75 71.5 219t11 269.5t-57.5 150.5q45 25 57.5 141.5t-11 252.5t-71.5 212h340q-49 -76 -72 -212t-9.5 -252t57.5 -142q-44 -26 -57.5 -151t9.5 -269t72 -219h-340z" />
<glyph unicode="&#xcf;" horiz-adv-x="442" d="M-57 1489q0 53 26 99t72 46q47 0 73.5 -46t26.5 -99q0 -51 -26.5 -97t-73.5 -46q-45 0 -71.5 46t-26.5 97zM51 0q48 75 71.5 219t11 269.5t-57.5 150.5q45 25 57.5 141.5t-11 252.5t-71.5 212h340q-49 -76 -72 -212t-9.5 -252t57.5 -142q-44 -26 -57.5 -151t9.5 -269 t72 -219h-340zM301 1489q0 53 26 99t72 46q48 0 74.5 -46t26.5 -99q0 -52 -26.5 -97.5t-74.5 -45.5q-45 0 -71.5 46t-26.5 97z" />
<glyph unicode="&#xd0;" horiz-adv-x="985" d="M61 614v52h140l2 180q2 109 -21.5 221.5t-64.5 177.5h395q144 0 253.5 -144t139.5 -364q6 -40 18 -59.5t42 -38.5q-30 -22 -41 -38t-15 -52q-23 -236 -134.5 -392.5t-260.5 -156.5h-397q39 65 61.5 181t22.5 231v202h-140zM383 279q0 -88 14 -181h60q66 0 121 76.5 t82 176.5t26 186q-1 42 -12.5 61.5t-44.5 42.5q33 20 45.5 40t11.5 60q-3 97 -31 189t-82.5 155.5t-121.5 63.5h-54q-14 -72 -14 -135v-348h141v-52h-141v-335z" />
<glyph unicode="&#xd1;" horiz-adv-x="819" d="M51 0q47 76 70.5 219.5t11 269t-58.5 150.5q46 25 58.5 142t-10.5 252t-71 212h264q-15 -18 -10.5 -52.5t14.5 -63.5t21 -48q37 -64 127.5 -162t120.5 -141q5 125 -15 259.5t-67 207.5h262q-49 -76 -72 -212t-10 -252t57 -142q-44 -26 -57 -151t10 -269t72 -219h-262 q35 53 58.5 133t23.5 162q0 51 -12.5 99t-28.5 83.5t-52 84t-61.5 77.5t-79.5 88q-64 71 -127 191q-6 -102 10 -180.5t52 -98.5q-45 -26 -58.5 -151t9.5 -269t73 -219h-262zM104 1489q97 129 195 129q46 0 115.5 -32t120.5 -32q54 0 129 52l51 -52q-97 -129 -195 -129 q-48 0 -116.5 32t-116.5 32q-58 0 -131 -51z" />
<glyph unicode="&#xd2;" d="M20 643q47 30 60 119q31 223 135.5 365.5t245.5 142.5t243 -141.5t138 -366.5q7 -46 19.5 -74t41.5 -45q-48 -33 -57 -115q-20 -156 -72 -279.5t-133.5 -197.5t-179.5 -74q-153 0 -256 155t-129 396q-9 81 -56 115zM248.5 1561.5q-3.5 33.5 25.5 72.5q56 70 123 25 l23 -21l260 -260l-47 -61l-324 174q-18 8 -26 14q-31 23 -34.5 56.5zM289 518q0 -442 172 -442q55 0 93 44.5t54.5 117t22.5 140.5t4 140q-2 50 -10.5 77.5t-36.5 47.5q28 17 37.5 46.5t9.5 78.5q1 76 -6.5 142.5t-25.5 128t-54.5 97t-87.5 35.5q-50 0 -86 -35.5 t-53.5 -97.5t-25 -127.5t-7.5 -142.5q0 -49 9.5 -78.5t37.5 -46.5q-29 -20 -38 -48.5t-9 -76.5z" />
<glyph unicode="&#xd3;" d="M20 643q47 30 60 119q31 223 135.5 365.5t245.5 142.5t243 -141.5t138 -366.5q7 -46 19.5 -74t41.5 -45q-48 -33 -57 -115q-20 -156 -72 -279.5t-133.5 -197.5t-179.5 -74q-153 0 -256 155t-129 396q-9 81 -56 115zM236 1378l260 260q14 15 22 21q67 45 123 -25 q29 -39 26 -72.5t-34 -56.5l-27 -14l-323 -174zM289 518q0 -442 172 -442q55 0 93 44.5t54.5 117t22.5 140.5t4 140q-2 50 -10.5 77.5t-36.5 47.5q28 17 37.5 46.5t9.5 78.5q1 76 -6.5 142.5t-25.5 128t-54.5 97t-87.5 35.5q-50 0 -86 -35.5t-53.5 -97.5t-25 -127.5 t-7.5 -142.5q0 -49 9.5 -78.5t37.5 -46.5q-29 -20 -38 -48.5t-9 -76.5z" />
<glyph unicode="&#xd4;" d="M20 643q47 30 60 119q31 223 135.5 365.5t245.5 142.5t243 -141.5t138 -366.5q7 -46 19.5 -74t41.5 -45q-48 -33 -57 -115q-20 -156 -72 -279.5t-133.5 -197.5t-179.5 -74q-153 0 -256 155t-129 396q-9 81 -56 115zM174 1452l213 164q19 19 70 19t71 -19l211 -164 l-37 -53l-243 92l-250 -92zM289 518q0 -442 172 -442q55 0 93 44.5t54.5 117t22.5 140.5t4 140q-2 50 -10.5 77.5t-36.5 47.5q28 17 37.5 46.5t9.5 78.5q1 76 -6.5 142.5t-25.5 128t-54.5 97t-87.5 35.5q-50 0 -86 -35.5t-53.5 -97.5t-25 -127.5t-7.5 -142.5 q0 -49 9.5 -78.5t37.5 -46.5q-29 -20 -38 -48.5t-9 -76.5z" />
<glyph unicode="&#xd5;" d="M20 643q47 30 60 119q31 223 135.5 365.5t245.5 142.5t243 -141.5t138 -366.5q7 -46 19.5 -74t41.5 -45q-48 -33 -57 -115q-20 -156 -72 -279.5t-133.5 -197.5t-179.5 -74q-153 0 -256 155t-129 396q-9 81 -56 115zM152 1489q97 129 194 129q46 0 115.5 -32t120.5 -32 q54 0 129 52l51 -52q-97 -129 -195 -129q-48 0 -116.5 32t-116.5 32q-58 0 -131 -51zM289 518q0 -442 172 -442q55 0 93 44.5t54.5 117t22.5 140.5t4 140q-2 50 -10.5 77.5t-36.5 47.5q28 17 37.5 46.5t9.5 78.5q1 76 -6.5 142.5t-25.5 128t-54.5 97t-87.5 35.5 q-50 0 -86 -35.5t-53.5 -97.5t-25 -127.5t-7.5 -142.5q0 -49 9.5 -78.5t37.5 -46.5q-29 -20 -38 -48.5t-9 -76.5z" />
<glyph unicode="&#xd6;" d="M20 643q47 30 60 119q31 223 135.5 365.5t245.5 142.5t243 -141.5t138 -366.5q7 -46 19.5 -74t41.5 -45q-48 -33 -57 -115q-20 -156 -72 -279.5t-133.5 -197.5t-179.5 -74q-153 0 -256 155t-129 396q-9 81 -56 115zM178 1489q0 53 26 99t72 46q47 0 74 -46t27 -99 q0 -51 -27 -97t-74 -46q-45 0 -71.5 46t-26.5 97zM289 518q0 -442 172 -442q55 0 93 44.5t54.5 117t22.5 140.5t4 140q-2 50 -10.5 77.5t-36.5 47.5q28 17 37.5 46.5t9.5 78.5q1 76 -6.5 142.5t-25.5 128t-54.5 97t-87.5 35.5q-50 0 -86 -35.5t-53.5 -97.5t-25 -127.5 t-7.5 -142.5q0 -49 9.5 -78.5t37.5 -46.5q-29 -20 -38 -48.5t-9 -76.5zM537 1489q0 53 26 99t72 46q48 0 74 -45.5t26 -99.5q0 -52 -26 -97.5t-74 -45.5q-45 0 -71.5 46t-26.5 97z" />
<glyph unicode="&#xd8;" d="M20 641q27 19 40 47.5t20 73.5q30 221 135 364.5t246 143.5q85 0 160 -56l51 162l49 -16l-57 -182q135 -135 178 -416q7 -46 19.5 -74t41.5 -47q-28 -18 -40 -44t-17 -69q-20 -156 -72 -279.5t-133.5 -197.5t-179.5 -74q-87 0 -160 54l-55 -160l-47 16l59 179 q-141 141 -182 462q-9 81 -56 113zM289 518q-4 -168 24 -276l267 843q-42 86 -119 86q-50 0 -86 -35.5t-53.5 -97.5t-25 -127.5t-7.5 -142.5q0 -50 8.5 -79t38.5 -46q-29 -20 -37 -46.5t-10 -78.5zM342 162q46 -86 119 -86q55 0 92.5 44.5t54 118t22.5 140t5 139.5 q-2 51 -10.5 78t-36.5 47q29 17 38 46t9 79q0 114 -27 236z" />
<glyph unicode="&#xd9;" horiz-adv-x="862" d="M41 1245h340q-49 -76 -72 -212t-10 -252t57 -142q-52 -39 -66.5 -170.5t15.5 -259.5q13 -55 59.5 -96t106.5 -41q61 0 108 41t60 96q30 129 15.5 260t-64.5 170q44 26 57 142t-10 252t-72 212h256q-47 -77 -70.5 -212t-11 -252t57.5 -142q-47 -49 -51.5 -188t49.5 -230 q-110 -248 -357 -248q-125 0 -222.5 61t-147.5 187q54 91 49.5 230t-51.5 188q45 25 57 142t-11.5 252t-70.5 212zM224 1561.5q-3 33.5 26 72.5q56 70 123 25l22 -21l260 -260l-47 -61l-323 174q-19 8 -27 14q-31 23 -34 56.5z" />
<glyph unicode="&#xda;" horiz-adv-x="862" d="M41 1245h340q-49 -76 -72 -212t-10 -252t57 -142q-52 -39 -66.5 -170.5t15.5 -259.5q13 -55 59.5 -96t106.5 -41q61 0 108 41t60 96q30 129 15.5 260t-64.5 170q44 26 57 142t-10 252t-72 212h256q-47 -77 -70.5 -212t-11 -252t57.5 -142q-47 -49 -51.5 -188t49.5 -230 q-110 -248 -357 -248q-125 0 -222.5 61t-147.5 187q54 91 49.5 230t-51.5 188q45 25 57 142t-11.5 252t-70.5 212zM242 1378l260 260q14 15 22 21q67 45 123 -25q29 -39 26 -72.5t-34 -56.5l-27 -14l-323 -174z" />
<glyph unicode="&#xdb;" horiz-adv-x="862" d="M41 1245h340q-49 -76 -72 -212t-10 -252t57 -142q-52 -39 -66.5 -170.5t15.5 -259.5q13 -55 59.5 -96t106.5 -41q61 0 108 41t60 96q30 129 15.5 260t-64.5 170q44 26 57 142t-10 252t-72 212h256q-47 -77 -70.5 -212t-11 -252t57.5 -142q-47 -49 -51.5 -188t49.5 -230 q-110 -248 -357 -248q-125 0 -222.5 61t-147.5 187q54 91 49.5 230t-51.5 188q45 25 57 142t-11.5 252t-70.5 212zM162 1452l213 164q19 19 70 19t71 -19l211 -164l-37 -53l-244 92l-249 -92z" />
<glyph unicode="&#xdc;" horiz-adv-x="862" d="M41 1245h340q-49 -76 -72 -212t-10 -252t57 -142q-52 -39 -66.5 -170.5t15.5 -259.5q13 -55 59.5 -96t106.5 -41q61 0 108 41t60 96q30 129 15.5 260t-64.5 170q44 26 57 142t-10 252t-72 212h256q-47 -77 -70.5 -212t-11 -252t57.5 -142q-47 -49 -51.5 -188t49.5 -230 q-110 -248 -357 -248q-125 0 -222.5 61t-147.5 187q54 91 49.5 230t-51.5 188q45 25 57 142t-11.5 252t-70.5 212zM172 1489q0 53 26 99t72 46q47 0 74 -46t27 -99q0 -51 -27 -97t-74 -46q-45 0 -71.5 46t-26.5 97zM530 1489q0 52 26.5 98.5t72.5 46.5q48 0 74 -45.5 t26 -99.5q0 -52 -26 -97.5t-74 -45.5q-46 0 -72.5 46t-26.5 97z" />
<glyph unicode="&#xdd;" horiz-adv-x="991" d="M23 1245h296q-3 -34 7.5 -77.5t22 -73.5t42.5 -105q47 -112 127 -211q62 82 115 211q6 15 21.5 52.5t20 50t14 39t12 41t5 34.5t1.5 39h233q-111 -86 -180 -231q-3 -6 -43.5 -81t-79 -151t-49.5 -110q-24 -128 -15 -330q6 -123 24.5 -196.5t61.5 -145.5h-342 q73 105 80 342q3 111 -8 206.5t-29 143.5l-161 297q-86 155 -176 256zM295 1378l260 260q15 15 23 21q66 45 122 -25q29 -39 26 -72.5t-34 -56.5l-26 -14l-324 -174z" />
<glyph unicode="&#xe0;" horiz-adv-x="817" d="M10 0q64 116 82 346q15 173 12 220q-5 55 -26 73q34 17 84.5 137t111 273t105.5 219h6q51 -55 105.5 -157.5t91.5 -194.5t75 -173.5t60 -101.5q-10 -18 -14.5 -39.5t-3.5 -54.5t3.5 -55t9 -71.5t9.5 -74.5q10 -90 16 -134.5t24.5 -108.5t45.5 -103h-336q58 95 51 317 h-317q0 -203 57 -317h-252zM201.5 1561.5q-3.5 33.5 25.5 72.5q56 70 123 25l23 -21l260 -260l-47 -61l-324 174q-18 8 -26 14q-31 23 -34.5 56.5zM207 414h307q-4 84 -26.5 147t-53.5 80q28 33 -1 149.5t-87 223.5q-32 -69 -57.5 -146t-35.5 -144t15 -83q-30 -27 -43 -83 t-18 -144z" />
<glyph unicode="&#xe1;" horiz-adv-x="817" d="M10 0q64 116 82 346q15 173 12 220q-5 55 -26 73q34 17 84.5 137t111 273t105.5 219h6q51 -55 105.5 -157.5t91.5 -194.5t75 -173.5t60 -101.5q-10 -18 -14.5 -39.5t-3.5 -54.5t3.5 -55t9 -71.5t9.5 -74.5q10 -90 16 -134.5t24.5 -108.5t45.5 -103h-336q58 95 51 317 h-317q0 -203 57 -317h-252zM188 1378l261 260q14 15 22 21q67 45 123 -25q29 -39 26 -72.5t-34 -56.5l-27 -14l-323 -174zM207 414h307q-4 84 -26.5 147t-53.5 80q28 33 -1 149.5t-87 223.5q-32 -69 -57.5 -146t-35.5 -144t15 -83q-30 -27 -43 -83t-18 -144z" />
<glyph unicode="&#xe2;" horiz-adv-x="817" d="M10 0q64 116 82 346q15 173 12 220q-5 55 -26 73q34 17 84.5 137t111 273t105.5 219h6q51 -55 105.5 -157.5t91.5 -194.5t75 -173.5t60 -101.5q-10 -18 -14.5 -39.5t-3.5 -54.5t3.5 -55t9 -71.5t9.5 -74.5q10 -90 16 -134.5t24.5 -108.5t45.5 -103h-336q58 95 51 317 h-317q0 -203 57 -317h-252zM104 1452l213 164q19 19 70.5 19t71.5 -19l211 -164l-37 -53l-244 92l-250 -92zM207 414h307q-4 84 -26.5 147t-53.5 80q28 33 -1 149.5t-87 223.5q-32 -69 -57.5 -146t-35.5 -144t15 -83q-30 -27 -43 -83t-18 -144z" />
<glyph unicode="&#xe3;" horiz-adv-x="817" d="M10 0q64 116 82 346q15 173 12 220q-5 55 -26 73q34 17 84.5 137t111 273t105.5 219h6q51 -55 105.5 -157.5t91.5 -194.5t75 -173.5t60 -101.5q-10 -18 -14.5 -39.5t-3.5 -54.5t3.5 -55t9 -71.5t9.5 -74.5q10 -90 16 -134.5t24.5 -108.5t45.5 -103h-336q58 95 51 317 h-317q0 -203 57 -317h-252zM102 1489q97 129 195 129q46 0 115 -32t120 -32q55 0 130 52l51 -52q-97 -129 -195 -129q-48 0 -116.5 32t-116.5 32q-58 0 -131 -51zM207 414h307q-4 84 -26.5 147t-53.5 80q28 33 -1 149.5t-87 223.5q-32 -69 -57.5 -146t-35.5 -144t15 -83 q-30 -27 -43 -83t-18 -144z" />
<glyph unicode="&#xe4;" horiz-adv-x="817" d="M10 0q64 116 82 346q15 173 12 220q-5 55 -26 73q34 17 84.5 137t111 273t105.5 219h6q51 -55 105.5 -157.5t91.5 -194.5t75 -173.5t60 -101.5q-10 -18 -14.5 -39.5t-3.5 -54.5t3.5 -55t9 -71.5t9.5 -74.5q10 -90 16 -134.5t24.5 -108.5t45.5 -103h-336q58 95 51 317 h-317q0 -203 57 -317h-252zM129 1489q0 53 26 99t72 46q47 0 74 -46t27 -99q0 -51 -27 -97t-74 -46q-45 0 -71.5 46t-26.5 97zM207 414h307q-4 84 -26.5 147t-53.5 80q28 33 -1 149.5t-87 223.5q-32 -69 -57.5 -146t-35.5 -144t15 -83q-30 -27 -43 -83t-18 -144zM487 1489 q0 52 26.5 98.5t72.5 46.5q48 0 74 -45.5t26 -99.5q0 -52 -26 -97.5t-74 -45.5q-46 0 -72.5 46t-26.5 97z" />
<glyph unicode="&#xe5;" horiz-adv-x="817" d="M10 0q64 116 82 346q15 173 12 220q-5 55 -26 73q34 17 84.5 137t111 273t105.5 219h6q51 -55 105.5 -157.5t91.5 -194.5t75 -173.5t60 -101.5q-10 -18 -14.5 -39.5t-3.5 -54.5t3.5 -55t9 -71.5t9.5 -74.5q10 -90 16 -134.5t24.5 -108.5t45.5 -103h-336q58 95 51 317 h-317q0 -203 57 -317h-252zM176 1522q0 84 59.5 144t145.5 60q83 0 142 -60t59 -144t-59 -144.5t-142 -60.5q-86 0 -145.5 60.5t-59.5 144.5zM207 414h307q-4 84 -26.5 147t-53.5 80q28 33 -1 149.5t-87 223.5q-32 -69 -57.5 -146t-35.5 -144t15 -83q-30 -27 -43 -83 t-18 -144zM258 1522q0 -51 36 -86t87 -35t85 35t34 86t-34 87t-85 36t-87 -36t-36 -87z" />
<glyph unicode="&#xe7;" horiz-adv-x="804" d="M20 637q49 31 62 121q30 222 135.5 366t245.5 144q72 0 141.5 -34.5t110.5 -98.5q6 -9 13.5 -15t11 -8t12.5 -4t10 -2l-158 -186q4 249 -133 249q-43 0 -76 -36.5t-52 -97.5t-29.5 -129.5t-12.5 -143.5q-3 -83 61 -125q-60 -40 -63 -125q-1 -67 8 -138.5t29 -141t58 -114 t89 -44.5q66 0 106.5 39t53.5 100q20 83 -12 153q-24 53 -56 48q-23 -5 -40 -37q-73 59 -51 132q17 55 75 82q72 33 138 -12q33 -22 57 -61q39 -63 48 -137.5t-12.5 -143.5t-63 -127.5t-106 -95t-137.5 -39.5q31 -13 64 -43q33 -29 33 -84q0 -41 -30 -64.5t-65 -23.5 q-51 0 -76.5 43.5t7.5 83.5q22 27 51 13q22 -10 17 -28q-2 -8 -11 -15q-15 16 -26 -3q-9 -16 -3 -38q9 -31 41 -31q50 0 50 63q0 22 -15 41q-13 16 -43.5 36t-40.5 30q-7 7 -16 25q-131 26 -225.5 177t-116.5 367q-9 79 -58 113z" />
<glyph unicode="&#xe8;" horiz-adv-x="733" d="M51 0q48 75 72 219t11.5 269.5t-58.5 150.5q46 25 58.5 142t-11.5 252t-72 212h613q-54 -168 -31 -356q-44 -10 -98 -55q2 38 3.5 81.5t-9.5 88t-28 81t-52 59.5t-82 23h-50q-14 -68 -14 -153v-307q64 43 117 96q53 -59 129 -103q-80 -43 -129 -104q-40 51 -117 96v-330 q0 -141 16 -266h41q45 0 79.5 19t54.5 50.5t34.5 71.5t18 81.5t5.5 81.5t-3 71q55 -45 100 -55q-13 -90 -1.5 -212t44.5 -204h-641zM158.5 1561.5q-3.5 33.5 25.5 72.5q56 70 123 25l23 -21l260 -260l-47 -61l-324 174q-18 8 -26 14q-31 23 -34.5 56.5z" />
<glyph unicode="&#xe9;" horiz-adv-x="733" d="M51 0q48 75 72 219t11.5 269.5t-58.5 150.5q46 25 58.5 142t-11.5 252t-72 212h613q-54 -168 -31 -356q-44 -10 -98 -55q2 38 3.5 81.5t-9.5 88t-28 81t-52 59.5t-82 23h-50q-14 -68 -14 -153v-307q64 43 117 96q53 -59 129 -103q-80 -43 -129 -104q-40 51 -117 96v-330 q0 -141 16 -266h41q45 0 79.5 19t54.5 50.5t34.5 71.5t18 81.5t5.5 81.5t-3 71q55 -45 100 -55q-13 -90 -1.5 -212t44.5 -204h-641zM166 1378l260 260q15 15 23 21q66 45 122 -25q29 -39 26 -72.5t-34 -56.5l-26 -14l-324 -174z" />
<glyph unicode="&#xea;" horiz-adv-x="733" d="M51 0q48 75 72 219t11.5 269.5t-58.5 150.5q46 25 58.5 142t-11.5 252t-72 212h613q-54 -168 -31 -356q-44 -10 -98 -55q2 38 3.5 81.5t-9.5 88t-28 81t-52 59.5t-82 23h-50q-14 -68 -14 -153v-307q64 43 117 96q53 -59 129 -103q-80 -43 -129 -104q-40 51 -117 96v-330 q0 -141 16 -266h41q45 0 79.5 19t54.5 50.5t34.5 71.5t18 81.5t5.5 81.5t-3 71q55 -45 100 -55q-13 -90 -1.5 -212t44.5 -204h-641zM84 1452l213 164q19 19 70 19t71 -19l211 -164l-37 -53l-243 92l-250 -92z" />
<glyph unicode="&#xeb;" horiz-adv-x="733" d="M51 0q48 75 72 219t11.5 269.5t-58.5 150.5q46 25 58.5 142t-11.5 252t-72 212h613q-54 -168 -31 -356q-44 -10 -98 -55q2 38 3.5 81.5t-9.5 88t-28 81t-52 59.5t-82 23h-50q-14 -68 -14 -153v-307q64 43 117 96q53 -59 129 -103q-80 -43 -129 -104q-40 51 -117 96v-330 q0 -141 16 -266h41q45 0 79.5 19t54.5 50.5t34.5 71.5t18 81.5t5.5 81.5t-3 71q55 -45 100 -55q-13 -90 -1.5 -212t44.5 -204h-641zM88 1489q0 53 26 99t72 46q47 0 74 -46t27 -99q0 -51 -27 -97t-74 -46q-45 0 -71.5 46t-26.5 97zM446 1489q0 52 26.5 98.5t72.5 46.5 q48 0 74 -45.5t26 -99.5q0 -52 -26 -97.5t-74 -45.5q-46 0 -72.5 46t-26.5 97z" />
<glyph unicode="&#xec;" horiz-adv-x="442" d="M13 1561.5q-3 33.5 26 72.5q56 70 123 25l22 -21l260 -260l-47 -61l-323 174q-19 8 -27 14q-31 23 -34 56.5zM51 0q48 75 71.5 219t11 269.5t-57.5 150.5q45 25 57.5 141.5t-11 252.5t-71.5 212h340q-49 -76 -72 -212t-9.5 -252t57.5 -142q-44 -26 -57.5 -151t9.5 -269 t72 -219h-340z" />
<glyph unicode="&#xed;" horiz-adv-x="442" d="M0 1378l260 260q15 15 23 21q67 45 123 -25q29 -39 25.5 -72.5t-34.5 -56.5l-26 -14l-324 -174zM51 0q48 75 71.5 219t11 269.5t-57.5 150.5q45 25 57.5 141.5t-11 252.5t-71.5 212h340q-49 -76 -72 -212t-9.5 -252t57.5 -142q-44 -26 -57.5 -151t9.5 -269t72 -219h-340z " />
<glyph unicode="&#xee;" horiz-adv-x="442" d="M-61 1452l213 164q19 19 70 19t71 -19l211 -164l-37 -53l-244 92l-250 -92zM51 0q48 75 71.5 219t11 269.5t-57.5 150.5q45 25 57.5 141.5t-11 252.5t-71.5 212h340q-49 -76 -72 -212t-9.5 -252t57.5 -142q-44 -26 -57.5 -151t9.5 -269t72 -219h-340z" />
<glyph unicode="&#xef;" horiz-adv-x="442" d="M-57 1489q0 53 26 99t72 46q47 0 73.5 -46t26.5 -99q0 -51 -26.5 -97t-73.5 -46q-45 0 -71.5 46t-26.5 97zM51 0q48 75 71.5 219t11 269.5t-57.5 150.5q45 25 57.5 141.5t-11 252.5t-71.5 212h340q-49 -76 -72 -212t-9.5 -252t57.5 -142q-44 -26 -57.5 -151t9.5 -269 t72 -219h-340zM301 1489q0 53 26 99t72 46q48 0 74.5 -46t26.5 -99q0 -52 -26.5 -97.5t-74.5 -45.5q-45 0 -71.5 46t-26.5 97z" />
<glyph unicode="&#xf0;" horiz-adv-x="985" d="M61 614v52h140l2 180q0 111 -22.5 223t-63.5 176h395q144 0 253.5 -144t139.5 -364q6 -40 18 -59.5t42 -38.5q-30 -22 -41 -38t-15 -52q-23 -236 -134.5 -392.5t-260.5 -156.5h-397q39 65 61.5 181t22.5 231v202h-140zM383 279q0 -88 14 -181h60q66 0 121 76.5t82 176.5 t26 186q-1 42 -12.5 61.5t-44.5 42.5q33 20 45 39.5t12 60.5q0 96 -28.5 188.5t-84 156t-122.5 63.5h-54q-14 -72 -14 -135v-348h141v-52h-141v-335z" />
<glyph unicode="&#xf1;" horiz-adv-x="819" d="M51 0q47 76 70.5 219.5t11 269t-58.5 150.5q46 25 58.5 142t-10.5 252t-71 212h264q-15 -18 -10.5 -52.5t14.5 -63.5t21 -48q37 -64 127.5 -162t120.5 -141q5 125 -15 259.5t-67 207.5h262q-49 -76 -72 -212t-10 -252t57 -142q-44 -26 -57 -151t10 -269t72 -219h-262 q35 53 58.5 133t23.5 162q0 51 -12.5 99t-28.5 83.5t-52 84t-61.5 77.5t-79.5 88q-64 71 -127 191q-6 -102 10 -180.5t52 -98.5q-45 -26 -58.5 -151t9.5 -269t73 -219h-262zM104 1489q97 129 195 129q46 0 115.5 -32t120.5 -32q54 0 129 52l51 -52q-97 -129 -195 -129 q-48 0 -116.5 32t-116.5 32q-58 0 -131 -51z" />
<glyph unicode="&#xf2;" d="M20 643q47 30 60 119q31 223 135.5 365.5t245.5 142.5t243 -141.5t138 -366.5q7 -46 19.5 -74t41.5 -45q-48 -33 -57 -115q-20 -156 -72 -279.5t-133.5 -197.5t-179.5 -74q-153 0 -256 155t-129 396q-9 81 -56 115zM248.5 1561.5q-3.5 33.5 25.5 72.5q56 70 123 25 l23 -21l260 -260l-47 -61l-324 174q-18 8 -26 14q-31 23 -34.5 56.5zM289 518q0 -442 172 -442q55 0 93 44.5t54.5 117t22.5 140.5t4 140q-2 50 -10.5 77.5t-36.5 47.5q28 17 37.5 46.5t9.5 78.5q1 76 -6.5 142.5t-25.5 128t-54.5 97t-87.5 35.5q-50 0 -86 -35.5 t-53.5 -97.5t-25 -127.5t-7.5 -142.5q0 -49 9.5 -78.5t37.5 -46.5q-29 -20 -38 -48.5t-9 -76.5z" />
<glyph unicode="&#xf3;" d="M20 643q47 30 60 119q31 223 135.5 365.5t245.5 142.5t243 -141.5t138 -366.5q7 -46 19.5 -74t41.5 -45q-48 -33 -57 -115q-20 -156 -72 -279.5t-133.5 -197.5t-179.5 -74q-153 0 -256 155t-129 396q-9 81 -56 115zM236 1378l260 260q14 15 22 21q67 45 123 -25 q29 -39 26 -72.5t-34 -56.5l-27 -14l-323 -174zM289 518q0 -442 172 -442q55 0 93 44.5t54.5 117t22.5 140.5t4 140q-2 50 -10.5 77.5t-36.5 47.5q28 17 37.5 46.5t9.5 78.5q1 76 -6.5 142.5t-25.5 128t-54.5 97t-87.5 35.5q-50 0 -86 -35.5t-53.5 -97.5t-25 -127.5 t-7.5 -142.5q0 -49 9.5 -78.5t37.5 -46.5q-29 -20 -38 -48.5t-9 -76.5z" />
<glyph unicode="&#xf4;" d="M20 643q47 30 60 119q31 223 135.5 365.5t245.5 142.5t243 -141.5t138 -366.5q7 -46 19.5 -74t41.5 -45q-48 -33 -57 -115q-20 -156 -72 -279.5t-133.5 -197.5t-179.5 -74q-153 0 -256 155t-129 396q-9 81 -56 115zM180 1452l213 164q19 19 70.5 19t71.5 -19l210 -164 l-36 -53l-244 92l-250 -92zM289 518q0 -442 172 -442q55 0 93 44.5t54.5 117t22.5 140.5t4 140q-2 50 -10.5 77.5t-36.5 47.5q28 17 37.5 46.5t9.5 78.5q1 76 -6.5 142.5t-25.5 128t-54.5 97t-87.5 35.5q-50 0 -86 -35.5t-53.5 -97.5t-25 -127.5t-7.5 -142.5 q0 -49 9.5 -78.5t37.5 -46.5q-29 -20 -38 -48.5t-9 -76.5z" />
<glyph unicode="&#xf5;" d="M20 643q47 30 60 119q31 223 135.5 365.5t245.5 142.5t243 -141.5t138 -366.5q7 -46 19.5 -74t41.5 -45q-48 -33 -57 -115q-20 -156 -72 -279.5t-133.5 -197.5t-179.5 -74q-153 0 -256 155t-129 396q-9 81 -56 115zM152 1489q97 129 194 129q46 0 115.5 -32t120.5 -32 q54 0 129 52l51 -52q-97 -129 -195 -129q-48 0 -116.5 32t-116.5 32q-58 0 -131 -51zM289 518q0 -442 172 -442q55 0 93 44.5t54.5 117t22.5 140.5t4 140q-2 50 -10.5 77.5t-36.5 47.5q28 17 37.5 46.5t9.5 78.5q1 76 -6.5 142.5t-25.5 128t-54.5 97t-87.5 35.5 q-50 0 -86 -35.5t-53.5 -97.5t-25 -127.5t-7.5 -142.5q0 -49 9.5 -78.5t37.5 -46.5q-29 -20 -38 -48.5t-9 -76.5z" />
<glyph unicode="&#xf6;" d="M20 643q47 30 60 119q31 223 135.5 365.5t245.5 142.5t243 -141.5t138 -366.5q7 -46 19.5 -74t41.5 -45q-48 -33 -57 -115q-20 -156 -72 -279.5t-133.5 -197.5t-179.5 -74q-153 0 -256 155t-129 396q-9 81 -56 115zM184 1489q0 52 26.5 98.5t72.5 46.5q47 0 73.5 -46 t26.5 -99q0 -51 -26.5 -97t-73.5 -46q-46 0 -72.5 46t-26.5 97zM289 518q0 -442 172 -442q55 0 93 44.5t54.5 117t22.5 140.5t4 140q-2 50 -10.5 77.5t-36.5 47.5q28 17 37.5 46.5t9.5 78.5q1 76 -6.5 142.5t-25.5 128t-54.5 97t-87.5 35.5q-50 0 -86 -35.5t-53.5 -97.5 t-25 -127.5t-7.5 -142.5q0 -49 9.5 -78.5t37.5 -46.5q-29 -20 -38 -48.5t-9 -76.5zM543 1489q0 53 26 99t72 46q48 0 74 -45.5t26 -99.5q0 -52 -26 -97.5t-74 -45.5q-45 0 -71.5 46t-26.5 97z" />
<glyph unicode="&#xf8;" d="M20 641q27 19 40 47.5t20 73.5q30 221 135 364.5t246 143.5q85 0 160 -56l51 162l49 -16l-57 -182q68 -68 114.5 -176.5t63.5 -239.5q9 -48 21 -75t40 -46q-27 -17 -38.5 -42.5t-18.5 -70.5q-22 -236 -129.5 -393.5t-255.5 -157.5q-87 0 -160 54l-51 -160l-47 16l55 179 q-74 74 -121.5 194t-60.5 268q-7 44 -18.5 69.5t-37.5 43.5zM289 518q-4 -168 24 -276l267 843q-42 86 -119 86q-50 0 -85 -35t-52 -99t-24.5 -126t-10.5 -143q1 -27 2.5 -41t5.5 -32.5t13.5 -30.5t25.5 -21q-29 -20 -37 -46.5t-10 -78.5zM342 162q46 -86 119 -86 q55 0 92.5 44t54 117.5t22.5 139.5t5 139q-2 52 -10.5 79.5t-36.5 47.5q28 17 35.5 43.5t11.5 81.5q-7 148 -27 236z" />
<glyph unicode="&#xf9;" horiz-adv-x="862" d="M41 1245h340q-49 -76 -72 -212t-10 -252t57 -142q-52 -39 -66.5 -170.5t15.5 -259.5q13 -55 59.5 -96t106.5 -41q61 0 108 41t60 96q30 129 15.5 260t-64.5 170q44 26 57 142t-10 252t-72 212h256q-47 -77 -70.5 -212t-11 -252t57.5 -142q-47 -49 -51.5 -188t49.5 -230 q-110 -248 -357 -248q-125 0 -222.5 61t-147.5 187q54 91 49.5 230t-51.5 188q45 25 57 142t-11.5 252t-70.5 212zM224 1561.5q-3 33.5 26 72.5q56 70 123 25l22 -21l260 -260l-47 -61l-323 174q-19 8 -27 14q-31 23 -34 56.5z" />
<glyph unicode="&#xfa;" horiz-adv-x="862" d="M41 1245h340q-49 -76 -72 -212t-10 -252t57 -142q-52 -39 -66.5 -170.5t15.5 -259.5q13 -55 59.5 -96t106.5 -41q61 0 108 41t60 96q30 129 15.5 260t-64.5 170q44 26 57 142t-10 252t-72 212h256q-47 -77 -70.5 -212t-11 -252t57.5 -142q-47 -49 -51.5 -188t49.5 -230 q-110 -248 -357 -248q-125 0 -222.5 61t-147.5 187q54 91 49.5 230t-51.5 188q45 25 57 142t-11.5 252t-70.5 212zM242 1378l260 260q14 15 22 21q67 45 123 -25q29 -39 26 -72.5t-34 -56.5l-27 -14l-323 -174z" />
<glyph unicode="&#xfb;" horiz-adv-x="862" d="M41 1245h340q-49 -76 -72 -212t-10 -252t57 -142q-52 -39 -66.5 -170.5t15.5 -259.5q13 -55 59.5 -96t106.5 -41q61 0 108 41t60 96q30 129 15.5 260t-64.5 170q44 26 57 142t-10 252t-72 212h256q-47 -77 -70.5 -212t-11 -252t57.5 -142q-47 -49 -51.5 -188t49.5 -230 q-110 -248 -357 -248q-125 0 -222.5 61t-147.5 187q54 91 49.5 230t-51.5 188q45 25 57 142t-11.5 252t-70.5 212zM168 1452l213 164q19 19 70 19t71 -19l211 -164l-37 -53l-243 92l-250 -92z" />
<glyph unicode="&#xfc;" horiz-adv-x="862" d="M41 1245h340q-49 -76 -72 -212t-10 -252t57 -142q-52 -39 -66.5 -170.5t15.5 -259.5q13 -55 59.5 -96t106.5 -41q61 0 108 41t60 96q30 129 15.5 260t-64.5 170q44 26 57 142t-10 252t-72 212h256q-47 -77 -70.5 -212t-11 -252t57.5 -142q-47 -49 -51.5 -188t49.5 -230 q-110 -248 -357 -248q-125 0 -222.5 61t-147.5 187q54 91 49.5 230t-51.5 188q45 25 57 142t-11.5 252t-70.5 212zM182 1489q0 52 26.5 98.5t72.5 46.5q47 0 73.5 -46t26.5 -99q0 -51 -26.5 -97t-73.5 -46q-46 0 -72.5 46t-26.5 97zM541 1489q0 53 26 99t72 46 q48 0 74 -45.5t26 -99.5q0 -52 -26 -97.5t-74 -45.5q-45 0 -71.5 46t-26.5 97z" />
<glyph unicode="&#xfd;" horiz-adv-x="991" d="M41 1245h297q-3 -34 7.5 -77.5t22 -73.5t42.5 -105q47 -112 127 -211q59 79 114 211q6 15 21.5 52.5t20 50t14 39t12 41t5 34.5t1.5 39h233q-111 -86 -180 -231q-3 -6 -43.5 -81t-79 -151t-49.5 -110q-23 -124 -14 -330q6 -123 24.5 -196.5t61.5 -145.5h-342 q73 105 80 342q3 111 -8 206.5t-29 143.5l-162 297q-86 155 -176 256zM315 1378l260 260q15 15 23 21q67 45 123 -25q29 -39 26 -72.5t-34 -56.5l-27 -14l-324 -174z" />
<glyph unicode="&#xff;" horiz-adv-x="991" d="M41 1245h297q-3 -34 7.5 -77.5t22 -73.5t42.5 -105q47 -112 127 -211q59 79 114 211q6 15 21.5 52.5t20 50t14 39t12 41t5 34.5t1.5 39h233q-111 -86 -180 -231q-3 -6 -43.5 -81t-79 -151t-49.5 -110q-23 -124 -14 -330q6 -123 24.5 -196.5t61.5 -145.5h-342 q73 105 80 342q3 111 -8 206.5t-29 143.5l-162 297q-86 155 -176 256zM227 1489q0 52 26.5 98.5t72.5 46.5q47 0 73.5 -46t26.5 -99q0 -51 -26.5 -97t-73.5 -46q-46 0 -72.5 46t-26.5 97zM586 1489q0 53 26 99t72 46q48 0 74 -45.5t26 -99.5q0 -52 -26 -97.5t-74 -45.5 q-45 0 -71.5 46t-26.5 97z" />
<glyph unicode="&#x152;" horiz-adv-x="1247" d="M20 641q53 34 62 117q28 212 133 349.5t248 137.5q71 0 123 -35q-10 23 -19 35h611q-54 -168 -31 -354q-45 -10 -96 -55q2 37 2.5 79t-10 83.5t-28 75t-52.5 54.5t-82 21h-27q-21 -72 -28 -177t-9 -270v-55q57 36 117 96q55 -61 129 -104q-83 -45 -129 -102 q-40 51 -117 96q0 -136 6 -271q5 -122 29 -264h22q54 0 93 27t58 69t31 93t10 99t-3 87q50 -44 102 -55q-14 -90 -3 -212t44 -206h-639q13 21 19 35q-56 -35 -123 -35q-155 0 -259.5 151t-125.5 381q-6 76 -58 109zM289 520q-1 -68 6 -134t25 -135t56.5 -111t92.5 -42 q79 0 129.5 79t52.5 185q4 241 -61 277q32 19 47.5 85t13.5 159q-2 111 -52 193.5t-130 82.5q-169 0 -178 -397q-2 -46 7 -74t38 -47q-28 -19 -36.5 -45t-10.5 -76z" />
<glyph unicode="&#x153;" horiz-adv-x="1247" d="M20 641q53 34 62 117q28 212 133 349.5t248 137.5q71 0 123 -35q-10 23 -19 35h611q-54 -168 -31 -354q-45 -10 -96 -55q2 37 2.5 79t-10 83.5t-28 75t-52.5 54.5t-82 21h-27q-21 -72 -28 -177t-9 -270v-55q57 36 117 96q55 -61 129 -104q-83 -45 -129 -102 q-40 51 -117 96q0 -136 6 -271q5 -122 29 -264h22q54 0 93 27t58 69t31 93t10 99t-3 87q50 -44 102 -55q-14 -90 -3 -212t44 -206h-639q13 21 19 35q-56 -35 -123 -35q-155 0 -259.5 151t-125.5 381q-6 76 -58 109zM289 520q-1 -68 6 -134t25 -135t56.5 -111t92.5 -42 q79 0 129.5 79t52.5 185q4 241 -61 277q32 19 47.5 85t13.5 159q-2 111 -52 193.5t-130 82.5q-169 0 -178 -397q-2 -46 7 -74t38 -47q-28 -19 -36.5 -45t-10.5 -76z" />
<glyph unicode="&#x178;" horiz-adv-x="991" d="M23 1245h296q-3 -34 7.5 -77.5t22 -73.5t42.5 -105q47 -112 127 -211q62 82 115 211q6 15 21.5 52.5t20 50t14 39t12 41t5 34.5t1.5 39h233q-111 -86 -180 -231q-3 -6 -43.5 -81t-79 -151t-49.5 -110q-24 -128 -15 -330q6 -123 24.5 -196.5t61.5 -145.5h-342 q73 105 80 342q3 111 -8 206.5t-29 143.5l-161 297q-86 155 -176 256zM221 1489q0 53 26 99t72 46q47 0 74 -46t27 -99q0 -51 -27 -97t-74 -46q-45 0 -71.5 46t-26.5 97zM580 1489q0 53 26 99t72 46q48 0 74 -45.5t26 -99.5q0 -52 -26 -97.5t-74 -45.5q-45 0 -71.5 46 t-26.5 97z" />
<glyph unicode="&#x2c6;" horiz-adv-x="745" d="M88 1452l213 164q19 19 70 19t71 -19l211 -164l-37 -53l-243 92l-250 -92z" />
<glyph unicode="&#x2dc;" horiz-adv-x="692" d="M41 1489q97 129 195 129q46 0 115 -32t120 -32q54 0 129 52l51 -52q-97 -129 -194 -129q-48 0 -117 32t-117 32q-58 0 -131 -51z" />
<glyph unicode="&#x2000;" horiz-adv-x="863" />
<glyph unicode="&#x2001;" horiz-adv-x="1726" />
<glyph unicode="&#x2002;" horiz-adv-x="863" />
<glyph unicode="&#x2003;" horiz-adv-x="1726" />
<glyph unicode="&#x2004;" horiz-adv-x="575" />
<glyph unicode="&#x2005;" horiz-adv-x="431" />
<glyph unicode="&#x2006;" horiz-adv-x="287" />
<glyph unicode="&#x2007;" horiz-adv-x="287" />
<glyph unicode="&#x2008;" horiz-adv-x="215" />
<glyph unicode="&#x2009;" horiz-adv-x="345" />
<glyph unicode="&#x200a;" horiz-adv-x="95" />
<glyph unicode="&#x2010;" horiz-adv-x="788" d="M76 539q2 5 6 10q142 175 305 188q28 2 72 -1.5t72.5 -4.5t65 14t67.5 50q23 25 43 5t2 -44q-58 -79 -142 -135t-166 -56q-20 0 -58.5 2.5t-63 2.5t-56 -4.5t-57.5 -20t-47 -41.5q-17 -21 -35 -6q-19 16 -8 41z" />
<glyph unicode="&#x2011;" horiz-adv-x="788" d="M76 539q2 5 6 10q142 175 305 188q28 2 72 -1.5t72.5 -4.5t65 14t67.5 50q23 25 43 5t2 -44q-58 -79 -142 -135t-166 -56q-20 0 -58.5 2.5t-63 2.5t-56 -4.5t-57.5 -20t-47 -41.5q-17 -21 -35 -6q-19 16 -8 41z" />
<glyph unicode="&#x2012;" horiz-adv-x="788" d="M76 539q2 5 6 10q142 175 305 188q28 2 72 -1.5t72.5 -4.5t65 14t67.5 50q23 25 43 5t2 -44q-58 -79 -142 -135t-166 -56q-20 0 -58.5 2.5t-63 2.5t-56 -4.5t-57.5 -20t-47 -41.5q-17 -21 -35 -6q-19 16 -8 41z" />
<glyph unicode="&#x2013;" horiz-adv-x="1164" d="M77 539q4 5 10 10q225 175 484 188q44 2 114 -1.5t115 -4.5t103 14t107 50q37 25 68.5 5t2.5 -44q-92 -79 -225 -135t-263 -56q-32 0 -93 2.5t-100 2.5t-89 -4.5t-91 -20t-74 -41.5q-27 -21 -56 -6q-30 16 -13 41z" />
<glyph unicode="&#x2014;" horiz-adv-x="2188" d="M84 539q6 5 19 10q450 175 967 188q89 2 228.5 -1.5t230 -4.5t206.5 14t214 50q73 25 136.5 5t6.5 -44q-184 -79 -450.5 -135t-526.5 -56q-64 0 -186 2.5t-199.5 2.5t-177.5 -4.5t-182.5 -20t-149.5 -41.5q-54 -21 -111 -6q-60 16 -25 41z" />
<glyph unicode="&#x201c;" horiz-adv-x="503" d="M63 127q-1 77 36 145.5t87 102.5h39q-54 -54 -73 -117q42 0 66 -41.5t24 -89.5q0 -46 -24.5 -87.5t-65.5 -41.5t-65 41.5t-24 87.5zM264 127q-1 77 36 145.5t87 102.5h39q-55 -55 -74 -117q42 0 65 -41t25 -90q0 -46 -24.5 -87.5t-65.5 -41.5t-64.5 41.5t-23.5 87.5z" />
<glyph unicode="&#x201d;" horiz-adv-x="501" d="M61 246q0 47 24 88t65 41q42 0 66 -41t24 -88q0 -77 -37 -146t-86 -102h-41q30 29 47 54.5t27 62.5q-41 0 -65 42t-24 89zM262 246q0 47 23.5 88t64.5 41q42 0 66 -41t24 -88q0 -77 -37 -146t-86 -102h-41q30 29 47 54.5t27 62.5q-41 0 -64.5 42t-23.5 89z" />
<glyph unicode="&#x202f;" horiz-adv-x="345" />
<glyph unicode="&#x205f;" horiz-adv-x="431" />
<glyph unicode="&#x20ac;" horiz-adv-x="1042" d="M61 651l21 72h156l8 57h-185l21 72h174q41 201 146 319.5t225 118.5q71 0 141.5 -35t112.5 -98q7 -13 16.5 -19.5t14 -7t16.5 -2.5l-160 -186q8 250 -133 250q-65 0 -109.5 -94.5t-60.5 -245.5h416l-21 -72h-401q-2 -18 -2 -57h424l-21 -72h-403q8 -557 190 -557 q67 0 107 39.5t53 99.5q17 68 -4 132.5t-55 70.5q-28 3 -50 -37q-55 47 -55 103q1 51 46 89t102 36q59 -3 103 -48t64.5 -104.5t22.5 -122.5q3 -144 -91.5 -249.5t-256.5 -104.5q-93 1 -171 63t-125.5 158t-74 203.5t-26.5 206.5v22h-175z" />
<glyph unicode="&#x25fc;" horiz-adv-x="1249" d="M0 0v1249h1249v-1249h-1249z" />
</font>
</defs>
</svg>
